<svg width="26" height="14" viewBox="0 0 26 14" fill="none" xmlns="http://www.w3.org/2000/svg">
<path d="M25.8282 6.11556L19.9192 0.206556C19.7069 -0.0413027 19.3339 -0.0701965 19.086 0.142116C18.8382 0.354378 18.8093 0.72741 19.0216 0.975269C19.0414 0.998374 19.0629 1.01996 19.086 1.03971L23.9846 5.94418H0.59088C0.264566 5.94418 0 6.20874 0 6.53511C0 6.86147 0.264566 7.12599 0.59088 7.12599H23.9846L19.086 12.0245C18.8382 12.2368 18.8093 12.6098 19.0216 12.8577C19.2339 13.1055 19.6069 13.1344 19.8548 12.9221C19.8779 12.9023 19.8994 12.8808 19.9192 12.8577L25.8282 6.94866C26.0573 6.71827 26.0573 6.34605 25.8282 6.11556Z" fill="white" fill-opacity="0.7"/>
</svg>
