<svg width="26" height="19" viewBox="0 0 26 19" fill="none" xmlns="http://www.w3.org/2000/svg">
<path d="M25.0284 13.5399H24.6181V10.2575C24.6175 9.82244 24.4444 9.40532 24.1368 9.09766C23.8291 8.79 23.412 8.6169 22.9769 8.61633V1.64121C22.9763 1.20611 22.8032 0.78899 22.4956 0.481328C22.1879 0.173665 21.7708 0.000569947 21.3357 0H4.10301C3.66791 0.000569947 3.2508 0.173665 2.94314 0.481328C2.63547 0.78899 2.46238 1.20611 2.46181 1.64121V8.61633C2.02671 8.6169 1.60959 8.79 1.30193 9.09766C0.994268 9.40532 0.821173 9.82244 0.820603 10.2575V13.5399H0.410301C0.301483 13.5399 0.197121 13.5832 0.120174 13.6601C0.043228 13.7371 0 13.8414 0 13.9503V15.5915C0 15.7003 0.043228 15.8046 0.120174 15.8816C0.197121 15.9585 0.301483 16.0018 0.410301 16.0018H0.820603V17.643C0.820603 17.7518 0.863831 17.8561 0.940777 17.9331C1.01772 18.01 1.12209 18.0533 1.2309 18.0533H2.46181C2.55664 18.0533 2.64855 18.0205 2.72187 17.9603C2.79519 17.9002 2.84539 17.8165 2.8639 17.7235L3.20856 16.0018H22.2301L22.5748 17.7235C22.5933 17.8165 22.6435 17.9002 22.7168 17.9603C22.7901 18.0205 22.882 18.0533 22.9769 18.0533H24.2078C24.3166 18.0533 24.421 18.01 24.4979 17.9331C24.5749 17.8561 24.6181 17.7518 24.6181 17.643V16.0018H25.0284C25.1372 16.0018 25.2416 15.9585 25.3185 15.8816C25.3955 15.8046 25.4387 15.7003 25.4387 15.5915V13.9503C25.4387 13.8414 25.3955 13.7371 25.3185 13.6601C25.2416 13.5832 25.1372 13.5399 25.0284 13.5399ZM3.28241 1.64121C3.2827 1.42366 3.36924 1.2151 3.52307 1.06127C3.67691 0.907436 3.88546 0.820888 4.10301 0.820603H21.3357C21.5532 0.820888 21.7618 0.907436 21.9156 1.06127C22.0694 1.2151 22.156 1.42366 22.1563 1.64121V8.61633H21.3357V6.97513C21.3351 6.54003 21.162 6.12291 20.8543 5.81525C20.5467 5.50758 20.1296 5.33449 19.6945 5.33392H14.7709C14.3358 5.33449 13.9186 5.50758 13.611 5.81525C13.3033 6.12291 13.1302 6.54003 13.1296 6.97513V8.61633H12.309V6.97513C12.3085 6.54003 12.1354 6.12291 11.8277 5.81525C11.5201 5.50758 11.1029 5.33449 10.6678 5.33392H5.74422C5.30912 5.33449 4.892 5.50758 4.58434 5.81525C4.27668 6.12291 4.10358 6.54003 4.10301 6.97513V8.61633H3.28241V1.64121ZM20.5151 6.97513V8.61633H13.9502V6.97513C13.9505 6.75758 14.0371 6.54902 14.1909 6.39519C14.3447 6.24135 14.5533 6.15481 14.7709 6.15452H19.6945C19.912 6.15481 20.1206 6.24135 20.2744 6.39519C20.4282 6.54902 20.5148 6.75758 20.5151 6.97513ZM11.4884 6.97513V8.61633H4.92362V6.97513C4.9239 6.75758 5.01045 6.54902 5.16428 6.39519C5.31811 6.24135 5.52667 6.15481 5.74422 6.15452H10.6678C10.8854 6.15481 11.0939 6.24135 11.2478 6.39519C11.4016 6.54902 11.4882 6.75758 11.4884 6.97513ZM1.64121 10.2575C1.64149 10.04 1.72804 9.83143 1.88187 9.6776C2.0357 9.52377 2.24426 9.43722 2.46181 9.43693H22.9769C23.1944 9.43722 23.403 9.52377 23.5568 9.6776C23.7106 9.83143 23.7972 10.04 23.7975 10.2575V13.5399H1.64121V10.2575ZM2.12536 17.2327H1.64121V16.0018H2.37154L2.12536 17.2327ZM23.7975 17.2327H23.3133L23.0671 16.0018H23.7975V17.2327ZM24.6181 15.1812H0.820603V14.3606H24.6181V15.1812Z" fill="white"/>
</svg>
