<svg width="22" height="22" viewBox="0 0 22 22" fill="none" xmlns="http://www.w3.org/2000/svg">
<path d="M15.1906 22.0002H2.61907C1.92471 21.9994 1.25902 21.7232 0.768027 21.2322C0.277036 20.7412 0.000831743 20.0755 0 19.3811V2.61907C0.000831743 1.92471 0.277036 1.25902 0.768027 0.768027C1.25902 0.277036 1.92471 0.000831743 2.61907 0H10.7172C11.0661 0.000233615 11.4113 0.0698186 11.733 0.204708C12.0547 0.339597 12.3463 0.537097 12.5909 0.785722L17.0633 5.36334C17.543 5.85306 17.8111 6.51168 17.8097 7.19721V11.0996C17.8097 11.2386 17.7545 11.3718 17.6563 11.47C17.558 11.5683 17.4248 11.6234 17.2859 11.6234C17.147 11.6234 17.0137 11.5683 16.9155 11.47C16.8173 11.3718 16.7621 11.2386 16.7621 11.0996V7.19721C16.7623 6.786 16.6013 6.39108 16.3137 6.0972L11.8408 1.51906C11.6943 1.36978 11.5194 1.2512 11.3265 1.17026C11.1336 1.08931 10.9265 1.04763 10.7172 1.04763H2.61907C2.2023 1.04763 1.8026 1.21319 1.50789 1.50789C1.21319 1.8026 1.04763 2.2023 1.04763 2.61907V19.3811C1.04763 19.7979 1.21319 20.1976 1.50789 20.4923C1.8026 20.787 2.2023 20.9526 2.61907 20.9526H15.1906C15.3882 20.9534 15.584 20.9151 15.7668 20.84C15.8953 20.7871 16.0396 20.7875 16.1678 20.8409C16.2961 20.8944 16.3978 20.9967 16.4507 21.1252C16.5035 21.2537 16.5032 21.3979 16.4497 21.5262C16.3962 21.6544 16.2939 21.7562 16.1654 21.809C15.8562 21.936 15.525 22.001 15.1906 22.0002Z" fill="white"/>
<path d="M17.0714 6.80932H13.6195C12.9251 6.80849 12.2594 6.53228 11.7684 6.04129C11.2774 5.5503 11.0012 4.88461 11.0004 4.19024V0.685924C11.0004 0.547 11.0556 0.413765 11.1538 0.315531C11.252 0.217297 11.3853 0.162109 11.5242 0.162109C11.6631 0.162109 11.7964 0.217297 11.8946 0.315531C11.9928 0.413765 12.048 0.547 12.048 0.685924V4.19024C12.048 4.60702 12.2136 5.00672 12.5083 5.30142C12.803 5.59613 13.2027 5.76169 13.6195 5.76169H17.0714C17.2103 5.76169 17.3436 5.81688 17.4418 5.91511C17.54 6.01334 17.5952 6.14658 17.5952 6.2855C17.5952 6.42443 17.54 6.55766 17.4418 6.6559C17.3436 6.75413 17.2103 6.80932 17.0714 6.80932ZM16.2385 21.9235C16.032 21.9237 15.83 21.8626 15.6581 21.748L13.9756 20.626C12.8985 19.9098 12.0153 18.9382 11.4048 17.7979C10.7943 16.6575 10.4754 15.3838 10.4766 14.0903V13.1936C10.4776 12.9579 10.5577 12.7294 10.7041 12.5446C10.8504 12.3599 11.0546 12.2297 11.2838 12.1748C12.8394 11.7447 14.3194 11.077 15.6712 10.1953C15.8404 10.0863 16.0373 10.0284 16.2385 10.0284C16.4397 10.0284 16.6367 10.0863 16.8058 10.1953C18.1576 11.0772 19.6376 11.7449 21.1933 12.1748C21.4225 12.2297 21.6266 12.3599 21.773 12.5446C21.9194 12.7294 21.9995 12.9579 22.0005 13.1936V14.0903C22.002 15.3842 21.6833 16.6583 21.0727 17.799C20.4622 18.9398 19.5788 19.9117 18.5014 20.6281L16.8194 21.7496C16.6473 21.8637 16.4451 21.9242 16.2385 21.9235ZM16.2385 11.0753C14.7903 12.02 13.2041 12.7343 11.5368 13.1925L11.5242 14.0903C11.5229 15.2117 11.7991 16.3159 12.3282 17.3045C12.8573 18.2931 13.6229 19.1355 14.5566 19.7564L16.2385 20.8758L17.9205 19.7544C18.8539 19.1336 19.6192 18.2916 20.1483 17.3033C20.6774 16.3151 20.9538 15.2113 20.9529 14.0903V13.1936C19.2814 12.7356 17.691 12.0212 16.2385 11.0758V11.0753Z" fill="white"/>
<path d="M15.7161 17.2858C15.5772 17.2858 15.444 17.2306 15.3457 17.1323L14.2981 16.0847C14.2027 15.9859 14.1499 15.8536 14.1511 15.7162C14.1523 15.5789 14.2074 15.4475 14.3045 15.3504C14.4016 15.2533 14.533 15.1982 14.6703 15.197C14.8077 15.1958 14.94 15.2486 15.0388 15.344L15.7161 16.0213L17.441 14.2964C17.5398 14.201 17.6721 14.1482 17.8095 14.1494C17.9468 14.1506 18.0782 14.2056 18.1753 14.3028C18.2724 14.3999 18.3275 14.5313 18.3287 14.6686C18.3299 14.806 18.2771 14.9383 18.1817 15.0371L16.0864 17.1323C15.9882 17.2306 15.855 17.2858 15.7161 17.2858ZM7.85886 5.23806H3.66835C3.52942 5.23806 3.39619 5.18287 3.29795 5.08464C3.19972 4.9864 3.14453 4.85317 3.14453 4.71424C3.14453 4.57532 3.19972 4.44209 3.29795 4.34385C3.39619 4.24562 3.52942 4.19043 3.66835 4.19043H7.85886C7.99779 4.19043 8.13102 4.24562 8.22926 4.34385C8.32749 4.44209 8.38268 4.57532 8.38268 4.71424C8.38268 4.85317 8.32749 4.9864 8.22926 5.08464C8.13102 5.18287 7.99779 5.23806 7.85886 5.23806ZM11.0018 8.38095H3.66835C3.52942 8.38095 3.39619 8.32576 3.29795 8.22753C3.19972 8.12929 3.14453 7.99606 3.14453 7.85713C3.14453 7.71821 3.19972 7.58497 3.29795 7.48674C3.39619 7.3885 3.52942 7.33332 3.66835 7.33332H11.0018C11.1407 7.33332 11.2739 7.3885 11.3721 7.48674C11.4704 7.58497 11.5256 7.71821 11.5256 7.85713C11.5256 7.99606 11.4704 8.12929 11.3721 8.22753C11.2739 8.32576 11.1407 8.38095 11.0018 8.38095ZM12.0494 11.5238H3.66835C3.52942 11.5238 3.39619 11.4686 3.29795 11.3704C3.19972 11.2722 3.14453 11.1389 3.14453 11C3.14453 10.8611 3.19972 10.7279 3.29795 10.6296C3.39619 10.5314 3.52942 10.4762 3.66835 10.4762H12.0494C12.1883 10.4762 12.3215 10.5314 12.4198 10.6296C12.518 10.7279 12.5732 10.8611 12.5732 11C12.5732 11.1389 12.518 11.2722 12.4198 11.3704C12.3215 11.4686 12.1883 11.5238 12.0494 11.5238ZM8.90649 14.6667H3.66835C3.52942 14.6667 3.39619 14.6115 3.29795 14.5133C3.19972 14.4151 3.14453 14.2818 3.14453 14.1429C3.14453 14.004 3.19972 13.8707 3.29795 13.7725C3.39619 13.6743 3.52942 13.6191 3.66835 13.6191H8.90649C9.04542 13.6191 9.17865 13.6743 9.27689 13.7725C9.37512 13.8707 9.43031 14.004 9.43031 14.1429C9.43031 14.2818 9.37512 14.4151 9.27689 14.5133C9.17865 14.6115 9.04542 14.6667 8.90649 14.6667ZM8.90649 17.8096H3.66835C3.52942 17.8096 3.39619 17.7544 3.29795 17.6562C3.19972 17.558 3.14453 17.4247 3.14453 17.2858C3.14453 17.1469 3.19972 17.0136 3.29795 16.9154C3.39619 16.8172 3.52942 16.762 3.66835 16.762H8.90649C9.04542 16.762 9.17865 16.8172 9.27689 16.9154C9.37512 17.0136 9.43031 17.1469 9.43031 17.2858C9.43031 17.4247 9.37512 17.558 9.27689 17.6562C9.17865 17.7544 9.04542 17.8096 8.90649 17.8096Z" fill="white"/>
</svg>
