<svg width="24" height="24" viewBox="0 0 24 24" fill="none" xmlns="http://www.w3.org/2000/svg">
<path d="M6 13.6H1.6C1.1758 13.5995 0.769111 13.4308 0.469155 13.1308C0.1692 12.8309 0.000476422 12.4242 0 12V1.6C0.000476422 1.1758 0.1692 0.769111 0.469155 0.469155C0.769111 0.1692 1.1758 0.000476422 1.6 0H12C12.4242 0.000476422 12.8309 0.1692 13.1308 0.469155C13.4308 0.769111 13.5995 1.1758 13.6 1.6V8.4H12.8V1.6C12.7998 1.3879 12.7154 1.18457 12.5654 1.03459C12.4154 0.884618 12.2121 0.800252 12 0.8H1.6C1.3879 0.800252 1.18457 0.884618 1.03459 1.03459C0.884618 1.18457 0.800252 1.3879 0.8 1.6V12C0.800252 12.2121 0.884618 12.4154 1.03459 12.5654C1.18457 12.7154 1.3879 12.7998 1.6 12.8H6V13.6Z" fill="white"/>
<path d="M5.20235 12.0001H2.80234C2.69626 12.0001 2.59452 11.958 2.5195 11.8829C2.44449 11.8079 2.40234 11.7062 2.40234 11.6001V2.0001C2.40234 1.89401 2.44449 1.79227 2.5195 1.71726C2.59452 1.64224 2.69626 1.6001 2.80234 1.6001H7.60235C8.55713 1.6001 9.4728 1.97938 10.1479 2.65451C10.8231 3.32964 11.2023 4.24532 11.2023 5.2001C11.2023 6.15488 10.8231 7.07055 10.1479 7.74568C9.4728 8.42081 8.55713 8.8001 7.60235 8.8001H5.60235V11.6001C5.60235 11.7062 5.5602 11.8079 5.48519 11.8829C5.41017 11.958 5.30843 12.0001 5.20235 12.0001ZM3.20234 11.2001H4.80234V8.4001C4.80234 8.29401 4.84449 8.19227 4.9195 8.11726C4.99452 8.04224 5.09626 8.0001 5.20235 8.0001H7.60235C8.34495 8.0001 9.05714 7.7051 9.58225 7.18C10.1073 6.6549 10.4023 5.94271 10.4023 5.2001C10.4023 4.45749 10.1073 3.7453 9.58225 3.2202C9.05714 2.6951 8.34495 2.4001 7.60235 2.4001H3.20234V11.2001ZM7.60235 6.4001H5.20235C5.09626 6.4001 4.99452 6.35796 4.9195 6.28294C4.84449 6.20793 4.80234 6.10619 4.80234 6.0001V4.4001C4.80234 4.29401 4.84449 4.19227 4.9195 4.11726C4.99452 4.04224 5.09626 4.0001 5.20235 4.0001H7.60235C7.92061 4.0001 8.22583 4.12653 8.45087 4.35157C8.67592 4.57661 8.80235 4.88184 8.80235 5.2001C8.80235 5.51836 8.67592 5.82358 8.45087 6.04863C8.22583 6.27367 7.92061 6.4001 7.60235 6.4001ZM5.60235 5.6001H7.60235C7.70843 5.6001 7.81017 5.55796 7.88519 5.48294C7.9602 5.40793 8.00235 5.30619 8.00235 5.2001C8.00235 5.09401 7.9602 4.99227 7.88519 4.91726C7.81017 4.84224 7.70843 4.8001 7.60235 4.8001H5.60235V5.6001ZM23.4852 15.7173C23.1681 15.3985 22.7406 15.2138 22.2911 15.2014L20.6553 10.2941C20.5493 9.97533 20.3456 9.6981 20.0731 9.50173C19.8007 9.30536 19.4732 9.19982 19.1374 9.2001H9.66735C9.33147 9.19982 9.00404 9.30536 8.73156 9.50173C8.45907 9.6981 8.25538 9.97533 8.1494 10.2941L6.5136 15.2014C6.05498 15.2154 5.61983 15.4074 5.30038 15.7368C4.98093 16.0661 4.8023 16.5069 4.80234 16.9658V20.0001C4.80282 20.4243 4.97155 20.831 5.2715 21.1309C5.57146 21.4309 5.97815 21.5996 6.40235 21.6001H9.20235V23.2001H6.80235V22.4001H6.00235V23.2001C6.0026 23.4122 6.08696 23.6155 6.23694 23.7655C6.38691 23.9155 6.59025 23.9999 6.80235 24.0001H9.20235C9.41444 23.9999 9.61778 23.9155 9.76775 23.7655C9.91773 23.6155 10.0021 23.4122 10.0023 23.2001V21.6001H18.8024V23.2001C18.8026 23.4122 18.887 23.6155 19.0369 23.7655C19.1869 23.9155 19.3903 23.9999 19.6024 24.0001H22.0024C22.2144 23.9999 22.4178 23.9155 22.5678 23.7655C22.7177 23.6155 22.8021 23.4122 22.8024 23.2001V21.5495C23.1456 21.4603 23.4496 21.2599 23.6667 20.9795C23.8839 20.6992 24.0019 20.3547 24.0024 20.0001V16.9658C24.003 16.7338 23.9576 16.504 23.8688 16.2897C23.7801 16.0754 23.6497 15.8808 23.4852 15.7173ZM9.66735 10.0001H19.1374C19.3053 9.99998 19.469 10.0528 19.6053 10.151C19.7415 10.2492 19.8434 10.3878 19.8964 10.5472L19.9807 10.8001H8.824L8.9083 10.5472C8.9613 10.3878 9.06316 10.2492 9.19941 10.151C9.33567 10.0528 9.49939 9.99998 9.66735 10.0001ZM8.55735 11.6001H20.2474L21.4474 15.2001H7.35735L8.55735 11.6001ZM22.0024 23.2001H19.6024V21.6001H22.0024L22.0028 23.2001H22.0024ZM23.2024 20.0001C23.2021 20.2122 23.1177 20.4155 22.9678 20.5655C22.8178 20.7155 22.6144 20.7999 22.4024 20.8001H6.40235C6.19025 20.7999 5.98691 20.7155 5.83694 20.5655C5.68696 20.4155 5.6026 20.2122 5.60235 20.0001V16.9658C5.60236 16.7097 5.7041 16.464 5.88519 16.2829C6.06628 16.1019 6.31189 16.0001 6.568 16.0001H22.2367C22.4928 16.0001 22.7384 16.1019 22.9195 16.2829C23.1006 16.464 23.2023 16.7097 23.2024 16.9658V20.0001Z" fill="white"/>
<path d="M7.99844 16.8003C7.68199 16.8003 7.37265 16.8941 7.10953 17.0699C6.84641 17.2458 6.64133 17.4956 6.52023 17.788C6.39913 18.0804 6.36745 18.4021 6.42918 18.7124C6.49092 19.0228 6.6433 19.3079 6.86707 19.5317C7.09083 19.7554 7.37592 19.9078 7.68629 19.9696C7.99666 20.0313 8.31837 19.9996 8.61073 19.8785C8.90309 19.7574 9.15298 19.5523 9.32879 19.2892C9.5046 19.0261 9.59844 18.7167 9.59844 18.4003C9.59796 17.9761 9.42924 17.5694 9.12928 17.2694C8.82933 16.9695 8.42264 16.8008 7.99844 16.8003ZM7.99844 19.2003C7.84021 19.2003 7.68554 19.1534 7.55398 19.0655C7.42242 18.9776 7.31989 18.8526 7.25933 18.7064C7.19878 18.5603 7.18294 18.3994 7.21381 18.2442C7.24468 18.089 7.32087 17.9465 7.43275 17.8346C7.54464 17.7227 7.68718 17.6465 7.84237 17.6157C7.99755 17.5848 8.15841 17.6006 8.30459 17.6612C8.45077 17.7217 8.57571 17.8243 8.66361 17.9558C8.75152 18.0874 8.79844 18.2421 8.79844 18.4003C8.79819 18.6124 8.71382 18.8157 8.56385 18.9657C8.41387 19.1157 8.21054 19.2 7.99844 19.2003ZM20.7984 16.8003C20.482 16.8003 20.1727 16.8941 19.9095 17.0699C19.6464 17.2458 19.4413 17.4956 19.3202 17.788C19.1991 18.0804 19.1675 18.4021 19.2292 18.7124C19.2909 19.0228 19.4433 19.3079 19.6671 19.5317C19.8908 19.7554 20.1759 19.9078 20.4863 19.9696C20.7967 20.0313 21.1184 19.9996 21.4107 19.8785C21.7031 19.7574 21.953 19.5523 22.1288 19.2892C22.3046 19.0261 22.3984 18.7167 22.3984 18.4003C22.398 17.9761 22.2292 17.5694 21.9293 17.2694C21.6293 16.9695 21.2226 16.8008 20.7984 16.8003ZM20.7984 19.2003C20.6402 19.2003 20.4855 19.1534 20.354 19.0655C20.2224 18.9776 20.1199 18.8526 20.0593 18.7064C19.9988 18.5603 19.9829 18.3994 20.0138 18.2442C20.0447 18.089 20.1209 17.9465 20.2328 17.8346C20.3446 17.7227 20.4872 17.6465 20.6424 17.6157C20.7976 17.5848 20.9584 17.6006 21.1046 17.6612C21.2508 17.7217 21.3757 17.8243 21.4636 17.9558C21.5515 18.0874 21.5984 18.2421 21.5984 18.4003C21.5982 18.6124 21.5138 18.8157 21.3639 18.9657C21.2139 19.1157 21.0105 19.2 20.7984 19.2003ZM10.3984 17.2003H18.3984V18.0003H10.3984V17.2003ZM10.3984 18.8003H18.3984V19.6003H10.3984V18.8003Z" fill="white"/>
</svg>
