<svg width="18" height="18" viewBox="0 0 18 18" fill="none" xmlns="http://www.w3.org/2000/svg">
<path d="M16.4504 2.69963L2.69971 16.4503C2.18811 16.9619 1.40756 16.9638 0.898442 16.4547C0.389325 15.9456 0.391224 15.1651 0.902824 14.6535L14.6535 0.90275C15.1651 0.391149 15.9457 0.38925 16.4548 0.898367C16.9639 1.40748 16.962 2.18803 16.4504 2.69963Z" fill="#145062"/>
<path d="M14.9777 16.5031L1.22703 2.75244C0.715435 2.24084 0.713535 1.46029 1.22265 0.951176C1.73177 0.442059 2.51232 0.443958 3.02392 0.955558L16.7746 14.7063C17.2862 15.2179 17.2881 15.9984 16.779 16.5075C16.2699 17.0166 15.4893 17.0147 14.9777 16.5031Z" fill="#145062"/>
</svg>
