<svg width="22" height="25" viewBox="0 0 22 25" fill="none" xmlns="http://www.w3.org/2000/svg">
<path d="M19.0357 0H4.97024C3.32681 0.000761905 1.99462 1.33276 1.99405 2.97619V4.2619H0.595238C0.266381 4.2619 0 4.52848 0 4.85714C0 5.18581 0.266381 5.45238 0.595238 5.45238H1.9879V9.35714H0.595238C0.266381 9.35714 0 9.62352 0 9.95238C0 10.281 0.266381 10.5476 0.595238 10.5476H1.9879V14.4524H0.595238C0.266381 14.4524 0 14.719 0 15.0476C0 15.3765 0.266381 15.6429 0.595238 15.6429H1.9879V19.5476H0.595238C0.266381 19.5476 0 19.8142 0 20.1429C0 20.4715 0.266381 20.7381 0.595238 20.7381H1.9879V22.0238C1.98867 23.6672 3.32067 24.9992 4.9641 25H19.0296C20.673 24.9992 22.0054 23.6672 22.0058 22.0238V2.97619C22.0082 1.3339 20.678 0.00109524 19.0357 0ZM20.8214 22.0238C20.8184 23.0088 20.0207 23.8067 19.0357 23.8095H4.97024C3.98529 23.8067 3.18733 23.0088 3.18452 22.0238V20.7381H4.57719C4.90605 20.7381 5.17243 20.4715 5.17243 20.1429C5.17243 19.8142 4.90605 19.5476 4.57719 19.5476H3.18452V15.6429H4.57719C4.90605 15.6429 5.17243 15.3765 5.17243 15.0476C5.17243 14.719 4.90605 14.4524 4.57719 14.4524H3.18452V10.5476H4.57719C4.90605 10.5476 5.17243 10.281 5.17243 9.95238C5.17243 9.62352 4.90605 9.35714 4.57719 9.35714H3.18452V5.45238H4.57719C4.90605 5.45238 5.17243 5.18581 5.17243 4.85714C5.17243 4.52848 4.90605 4.2619 4.57719 4.2619H3.18452V2.97619C3.18733 1.99124 3.98529 1.19329 4.97024 1.19048H19.0357C20.0207 1.19329 20.8184 1.99124 20.8214 2.97619V22.0238Z" fill="#777777"/>
<path d="M11.9989 12.3275C13.5932 12.3275 14.8858 11.0351 14.8858 9.44062C14.8858 7.84609 13.5932 6.55371 11.9989 6.55371C10.4044 6.55371 9.11198 7.84609 9.11198 9.44062C9.11346 11.0344 10.4049 12.326 11.9989 12.3275ZM11.9989 7.73823C12.9357 7.73823 13.6953 8.4979 13.6953 9.43466C13.6953 10.3714 12.9357 11.1311 11.9989 11.1311C11.0619 11.1311 10.3025 10.3714 10.3025 9.43466C10.3041 8.49866 11.0625 7.7399 11.9989 7.73823ZM11.9989 13.2859C9.5227 13.2859 7.58203 15.2918 7.58203 17.8573C7.58298 18.1856 7.84898 18.4516 8.17727 18.4525H15.8203C16.1486 18.4516 16.4146 18.1856 16.4156 17.8573C16.4156 15.2918 14.4749 13.2859 11.9989 13.2859ZM8.82013 17.262C9.07627 15.637 10.356 14.4763 11.9989 14.4763C13.6416 14.4763 14.9275 15.637 15.1775 17.262H8.82013Z" fill="#777777"/>
</svg>
