<svg width="29" height="31" viewBox="0 0 29 31" fill="none" xmlns="http://www.w3.org/2000/svg">
<path d="M0.90625 5.91205H14.7042C15.12 7.84532 16.8104 9.2967 18.8264 9.2967C20.8423 9.2967 22.5327 7.84537 22.9486 5.91205H28.0938C28.5942 5.91205 29 5.49761 29 4.98646C29 4.4753 28.5942 4.06087 28.0938 4.06087H22.9481C22.5315 2.12858 20.8388 0.67627 18.8264 0.67627C16.8129 0.67627 15.121 2.12835 14.7045 4.06087H0.90625C0.405773 4.06087 0 4.4753 0 4.98646C0 5.49761 0.405773 5.91205 0.90625 5.91205ZM16.4188 4.98889L16.4189 4.97894C16.4228 3.62717 17.5028 2.52751 18.8264 2.52751C20.1481 2.52751 21.2281 3.62566 21.2338 4.9768L21.234 4.99039C21.2319 6.34447 20.1527 7.44558 18.8264 7.44558C17.5007 7.44558 16.4218 6.34557 16.4188 4.9923L16.4188 4.98889ZM28.0938 25.088H22.9481C22.5314 23.1558 20.8388 21.7034 18.8264 21.7034C16.8129 21.7034 15.121 23.1556 14.7045 25.088H0.90625C0.405773 25.088 0 25.5024 0 26.0136C0 26.5248 0.405773 26.9392 0.90625 26.9392H14.7042C15.12 28.8725 16.8104 30.3239 18.8264 30.3239C20.8423 30.3239 22.5327 28.8725 22.9486 26.9392H28.0938C28.5942 26.9392 29 26.5248 29 26.0136C29 25.5024 28.5942 25.088 28.0938 25.088ZM18.8264 28.4727C17.5007 28.4727 16.4218 27.3727 16.4188 26.0194L16.4188 26.0161L16.4189 26.0061C16.4228 24.6543 17.5028 23.5546 18.8264 23.5546C20.1481 23.5546 21.2281 24.6528 21.2338 26.0038L21.234 26.0174C21.2321 27.3717 20.1528 28.4727 18.8264 28.4727ZM28.0938 14.5745H14.2958C13.88 12.6412 12.1896 11.1899 10.1736 11.1899C8.15767 11.1899 6.46728 12.6412 6.05143 14.5745H0.90625C0.405773 14.5745 0 14.9889 0 15.5001C0 16.0113 0.405773 16.4257 0.90625 16.4257H6.05188C6.46859 18.3579 8.16123 19.8103 10.1736 19.8103C12.1871 19.8103 13.879 18.3581 14.2955 16.4257H28.0938C28.5942 16.4257 29 16.0113 29 15.5001C29 14.9889 28.5942 14.5745 28.0938 14.5745ZM12.5812 15.4976L12.5811 15.5076C12.5772 16.8594 11.4972 17.959 10.1736 17.959C8.85191 17.959 7.77189 16.8609 7.76617 15.5098L7.766 15.4962C7.76798 14.142 8.84727 13.0411 10.1736 13.0411C11.4993 13.0411 12.5782 14.141 12.5812 15.4943L12.5812 15.4976Z" fill="white"/>
</svg>
