<svg width="79" height="27" viewBox="0 0 79 27" fill="none" xmlns="http://www.w3.org/2000/svg">
<line x1="4.37114e-08" y1="20.5" x2="78" y2="20.5" stroke="white" stroke-dasharray="4 4"/>
<path d="M72 14L78 20.4286L72 26" stroke="white"/>
<path d="M27.281 8.99991C27.5035 9.303 27.7952 9.54957 28.1322 9.71944C28.4693 9.88932 28.8422 9.97768 29.2203 9.97729C29.4055 9.97729 29.6016 9.95569 29.7869 9.91249C31.6935 9.4535 35.2453 8.57872 38.6882 7.63374L37.0375 11.4947C36.9613 11.662 36.9831 11.851 37.0811 12.0022C37.1846 12.1534 37.3535 12.2452 37.5387 12.2452C38.9061 12.2452 40.2026 11.6458 41.0796 10.5983C42.18 9.29691 43.5637 7.47715 44.152 6.01918C44.5007 5.90039 44.833 5.78699 45.1435 5.67899C48.5046 4.48022 50.5311 3.68104 51.6206 2.88186C52.1327 2.49847 52.3506 1.86128 52.1817 1.2565C52.0984 0.962752 51.9264 0.701322 51.6888 0.507306C51.4512 0.31329 51.1594 0.195978 50.8525 0.171122L49.0548 0.0145261C48.4066 -0.0394726 47.7474 0.0577243 47.1482 0.295319L40.3714 2.96826C38.5029 2.39047 35.4469 2.00708 33.7527 1.82888C32.7122 1.71548 31.6989 2.08268 30.9744 2.82786C30.8437 2.95746 30.7892 3.14645 30.8328 3.32465C30.8764 3.50284 31.0071 3.64864 31.1814 3.71344L35.071 5.06341L30.6421 6.80756L27.3137 4.77181C27.2462 4.72958 27.1699 4.70324 27.0906 4.69481C27.0112 4.68639 26.931 4.6961 26.8561 4.72321L25.3689 5.22C25.2055 5.274 25.0747 5.4036 25.0257 5.57099C24.9712 5.73299 25.0039 5.91119 25.1074 6.05158L27.281 8.99991Z" fill="white"/>
</svg>
