<svg width="13" height="17" viewBox="0 0 13 17" fill="none" xmlns="http://www.w3.org/2000/svg">
<path d="M6.4017 8.18892C7.43284 8.18892 8.32575 7.78541 9.05533 6.9893C9.78491 6.19336 10.1547 5.21946 10.1547 4.09435C10.1547 2.96956 9.78491 1.99556 9.05521 1.19932C8.32551 0.403481 7.43272 0 6.4017 0C5.37041 0 4.47771 0.403481 3.74816 1.19945C3.01862 1.99543 2.64864 2.96947 2.64864 4.09435C2.64864 5.21946 3.01859 6.1935 3.74829 6.98947C4.47798 7.78531 5.37078 8.18892 6.4017 8.18892ZM12.9685 13.0721C12.9474 12.7408 12.9049 12.3795 12.8422 11.9979C12.779 11.6135 12.6976 11.2501 12.6001 10.9179C12.4994 10.5746 12.3625 10.2356 12.1932 9.91066C12.0175 9.57345 11.8111 9.2798 11.5795 9.03819C11.3373 8.78541 11.0409 8.58218 10.698 8.43389C10.3564 8.28647 9.9777 8.21177 9.5727 8.21177C9.41362 8.21177 9.25981 8.28295 8.96272 8.49399C8.75154 8.64402 8.53974 8.79299 8.32731 8.9409C8.12319 9.08281 7.84667 9.21575 7.50512 9.33611C7.17191 9.45375 6.83358 9.51342 6.49964 9.51342C6.16572 9.51342 5.82749 9.45375 5.49391 9.33611C5.15275 9.21585 4.87623 9.08294 4.67233 8.94103C4.43586 8.77618 4.22192 8.62574 4.03634 8.49382C3.73961 8.28282 3.58565 8.2116 3.42661 8.2116C3.02145 8.2116 2.64295 8.28644 2.3014 8.43406C1.95878 8.58204 1.66218 8.78528 1.41978 9.03832C1.18833 9.28007 0.981841 9.57355 0.806363 9.91066C0.637215 10.2355 0.500265 10.5744 0.39944 10.918C0.302053 11.2502 0.220644 11.6135 0.157404 11.9979C0.0947416 12.379 0.0521959 12.7404 0.0311361 13.0725C0.0101865 13.4066 -0.000197456 13.7414 2.84289e-06 14.0763C2.84289e-06 14.9637 0.258564 15.6821 0.768443 16.2119C1.27202 16.7348 1.93833 17 2.74861 17H10.2514C11.0617 17 11.7277 16.7349 12.2314 16.212C12.7414 15.6825 13 14.964 13 14.0762C12.9999 13.7337 12.9893 13.3958 12.9685 13.0721Z" fill="black"/>
</svg>
