<svg width="30" height="30" viewBox="0 0 30 30" fill="none" xmlns="http://www.w3.org/2000/svg">
<path fill-rule="evenodd" clip-rule="evenodd" d="M24.1057 27.7384C23.7727 27.7384 23.5008 27.4664 23.5008 27.1322C23.5008 26.798 23.7727 26.526 24.1057 26.526C24.4412 26.526 24.7131 26.798 24.7131 27.1322C24.7131 27.467 24.4412 27.7384 24.1057 27.7384ZM24.1057 25.7791C23.3607 25.7791 22.7533 26.386 22.7533 27.1322C22.7533 27.8784 23.3607 28.4852 24.1057 28.4852C24.8532 28.4852 25.4606 27.8784 25.4606 27.1322C25.46 26.386 24.8525 25.7791 24.1057 25.7791ZM4.89806 27.7384C4.56261 27.7384 4.29063 27.4664 4.29063 27.1322C4.29063 26.798 4.56261 26.526 4.89806 26.526C5.23352 26.526 5.5055 26.798 5.5055 27.1322C5.5055 27.467 5.23352 27.7384 4.89806 27.7384ZM4.89806 25.7791C4.1506 25.7791 3.54316 26.386 3.54316 27.1322C3.54316 27.8784 4.1506 28.4852 4.89806 28.4852C5.64553 28.4852 6.25048 27.8784 6.25048 27.1322C6.25048 26.386 5.64553 25.7791 4.89806 25.7791ZM23.1497 19.5753H18.4988V15.693H23.1497V19.5753ZM2.2978 15.693H6.95189V19.5753H2.2978V15.693ZM12.3503 19.5753H7.69936V15.693H12.3503V19.5753ZM13.0972 15.693H17.7513V19.5753H13.0972V15.693ZM23.5232 14.9461H1.92437C1.71837 14.9461 1.55095 15.1129 1.55095 15.3196V19.9488C1.55095 20.1554 1.71899 20.3222 1.92437 20.3222H23.5232C23.7292 20.3222 23.8966 20.1554 23.8966 19.9488V15.3196C23.8972 15.1136 23.7292 14.9461 23.5232 14.9461ZM28.9726 26.5689C29.1251 26.5689 29.2521 26.4432 29.2521 26.2889V22.7557H24.9235C24.715 22.7557 24.5501 22.5882 24.5501 22.3822V15.3196C24.5501 15.1129 24.715 14.9461 24.9235 14.9461H27.8947L27.7323 14.2908C27.6762 14.0649 27.4833 13.9136 27.2493 13.9136H1.02691C0.871943 13.9136 0.747468 14.0387 0.747468 14.1931V26.2889C0.747468 26.4432 0.871943 26.5689 1.02691 26.5689H2.0893C2.35132 25.2576 3.51018 24.2668 4.89806 24.2668C6.28595 24.2668 7.44481 25.2576 7.70683 26.5689H21.2969C21.559 25.2576 22.7203 24.2668 24.1057 24.2668C25.4936 24.2668 26.6549 25.2576 26.917 26.5689H28.9726ZM24.1057 29.2514C25.2751 29.2514 26.2255 28.301 26.2255 27.1328C26.2255 25.9646 25.2751 25.0142 24.1057 25.0142C22.9394 25.0142 21.9884 25.9646 21.9884 27.1328C21.9884 28.3004 22.9387 29.2514 24.1057 29.2514ZM4.89806 29.2514C6.0675 29.2514 7.01786 28.301 7.01786 27.1328C7.01786 25.9646 6.0675 25.0142 4.89806 25.0142C3.72863 25.0142 2.77827 25.9646 2.77827 27.1328C2.77827 28.3004 3.72863 29.2514 4.89806 29.2514ZM29.2521 20.4V22.0094H25.2975V15.693H28.0808L29.2521 20.4ZM29.9871 20.2637L28.4573 14.1115C28.391 13.8416 28.2359 13.6018 28.0169 13.4306C27.798 13.2594 27.5279 13.1667 27.2499 13.1674H1.02691C0.459933 13.1674 0 13.628 0 14.1937V26.2895C0 26.8558 0.459933 27.3164 1.02691 27.3164H2.03827C2.13473 28.8107 3.3801 29.9982 4.89744 29.9982C6.41478 29.9982 7.66015 28.8107 7.75662 27.3164H21.2484C21.3424 28.8107 22.5877 29.9982 24.1051 29.9982C25.6249 29.9982 26.8703 28.8107 26.9643 27.3164H28.972C29.5365 27.3164 29.9989 26.8558 29.9989 26.2895V20.3539C29.9996 20.3234 29.9946 20.2936 29.9871 20.2637ZM6.64444 3.45903L7.3639 5.14752C7.43236 5.30934 7.60538 5.40083 7.7784 5.36847L19.0682 3.20946C19.2083 3.18207 19.3452 3.16091 19.4827 3.14349L19.5972 3.71794C19.7777 4.62473 20.5501 5.25333 21.46 5.25333C21.5029 5.25333 21.544 5.25208 21.587 5.24959L23.8692 5.1052C23.8592 5.36535 23.7621 5.60808 23.5947 5.7923C23.4242 5.97839 23.2057 6.08046 22.9798 6.08046H22.9699L18.3873 6.17132L18.9493 5.72882C19.1093 5.60123 19.1373 5.3666 19.0103 5.20478C18.8834 5.04296 18.6494 5.01496 18.4869 5.14192L12.8874 9.54956H11.8556L14.0899 5.63359C14.1913 5.45435 14.1303 5.22656 13.9498 5.12387C13.7718 5.0218 13.5434 5.08466 13.4414 5.26328L12.8588 6.28086L7.31287 6.3904C7.3054 6.39102 7.29731 6.39102 7.28984 6.39102C6.71041 6.39102 6.22496 5.92487 6.20442 5.34233L6.13845 3.52064L6.64444 3.45903ZM11.7603 0.807103L13.4986 3.51318L16.023 3.03146L12.7922 0.752957L11.7603 0.807103ZM21.8484 3.32895C21.292 3.17212 20.7654 3.09494 20.2345 3.09494L20.3285 3.57292C20.443 4.14986 20.9515 4.54196 21.5409 4.50461L23.6532 4.37143C23.2873 3.84117 22.5193 3.51878 21.8484 3.32895ZM7.28984 7.13849C7.30229 7.13849 7.31536 7.13787 7.3278 7.13787L12.4288 7.03704L10.8884 9.73814C10.856 9.79491 10.8389 9.85916 10.8389 9.92454C10.8389 9.98992 10.856 10.0542 10.8884 10.1109C10.9569 10.2261 11.0788 10.297 11.2114 10.297H13.0163C13.1003 10.297 13.1812 10.2684 13.2478 10.2167L17.4133 6.93809L22.9823 6.82793C23.4223 6.8273 23.8362 6.6381 24.1462 6.2958C24.4511 5.96096 24.6192 5.5197 24.6192 5.05354C24.6192 4.91413 24.6042 4.77908 24.5762 4.64776C24.5737 4.63158 24.5712 4.61602 24.5663 4.60046C24.3478 3.7086 23.4734 3.01154 22.0525 2.61011C20.9826 2.30889 20.0192 2.26781 18.9288 2.4763L17.043 2.83666L13.1159 0.0683482C13.0499 0.0198032 12.9659 -0.00384686 12.8818 0.000509745L11.0801 0.0957326C11.0149 0.0992754 10.9518 0.119807 10.8969 0.155289C10.8421 0.190772 10.7976 0.239971 10.7677 0.298003C10.7378 0.356189 10.7238 0.42119 10.7269 0.486504C10.7301 0.551819 10.7504 0.615157 10.7857 0.670182L12.7095 3.66503L7.93337 4.57868L7.222 2.90885C7.19085 2.83445 7.13621 2.77228 7.06643 2.73183C6.99665 2.69138 6.91555 2.67486 6.83551 2.6848L5.70964 2.8211C5.5167 2.84413 5.37418 3.01092 5.38165 3.2051L5.4582 5.36971C5.49305 6.35243 6.31147 7.13849 7.28984 7.13849Z" fill="#145062"/>
</svg>
