<svg width="23" height="30" viewBox="0 0 23 30" fill="none" xmlns="http://www.w3.org/2000/svg">
<path d="M22.0452 4.69678H0.439449C0.3229 4.69678 0.211125 4.74308 0.128712 4.82549C0.0462991 4.9079 0 5.01968 0 5.13623V29.5602C0 29.6767 0.0462991 29.7885 0.128712 29.8709C0.211125 29.9533 0.3229 29.9996 0.439449 29.9996H22.0452C22.1618 29.9996 22.2736 29.9533 22.356 29.8709C22.4384 29.7885 22.4847 29.6767 22.4847 29.5602V5.13623C22.4847 5.01968 22.4384 4.9079 22.356 4.82549C22.2736 4.74308 22.1618 4.69678 22.0452 4.69678ZM21.6058 29.1207H17.3181V25.3027H19.2271C19.2878 25.3027 19.3478 25.2902 19.4033 25.2658C19.4589 25.2415 19.5088 25.2059 19.55 25.1613C19.5911 25.1168 19.6226 25.0641 19.6424 25.0068C19.6622 24.9495 19.67 24.8887 19.6651 24.8282L18.8001 14.0154C18.7716 13.6536 18.637 13.3083 18.4132 13.0226C18.1895 12.7369 17.8864 12.5235 17.542 12.4091C17.4873 12.3909 17.4294 12.3836 17.3719 12.3877C17.3143 12.3918 17.2581 12.4072 17.2065 12.433C17.1549 12.4588 17.1089 12.4945 17.071 12.5381C17.0332 12.5817 17.0044 12.6323 16.9861 12.6871C16.9679 12.7418 16.9606 12.7996 16.9647 12.8572C16.9688 12.9148 16.9842 12.971 17.01 13.0226C17.0358 13.0742 17.0715 13.1202 17.1151 13.158C17.1587 13.1959 17.2093 13.2247 17.2641 13.243C17.4447 13.303 17.6037 13.4149 17.7211 13.5647C17.8384 13.7146 17.909 13.8957 17.924 14.0855L18.7511 24.4237H16.8786C16.7621 24.4237 16.6503 24.47 16.5679 24.5524C16.4855 24.6348 16.4392 24.7466 16.4392 24.8632V29.1207H14.4999V24.8633C14.4999 24.7467 14.4536 24.635 14.3712 24.5526C14.2888 24.4701 14.177 24.4238 14.0604 24.4238H12.188L13.0151 14.0856C13.0301 13.8958 13.1007 13.7147 13.218 13.5648C13.3354 13.415 13.4944 13.3031 13.675 13.2431C13.7856 13.2062 13.877 13.127 13.9291 13.0227C13.9813 12.9185 13.9898 12.7978 13.953 12.6872C13.9161 12.5766 13.8369 12.4852 13.7326 12.4331C13.6284 12.381 13.5077 12.3724 13.3971 12.4092C13.0527 12.5236 12.7497 12.737 12.5259 13.0227C12.3021 13.3084 12.1676 13.6537 12.139 14.0155L11.274 24.8283C11.2691 24.8888 11.2769 24.9496 11.2967 25.0069C11.3165 25.0643 11.348 25.1169 11.3891 25.1615C11.4303 25.2061 11.4802 25.2416 11.5358 25.266C11.5914 25.2903 11.6514 25.3029 11.712 25.3029H13.6211V29.1207H9.33338V21.9646C9.33338 21.831 9.38535 21.7055 9.4798 21.6111L10.2011 20.8898C10.5502 20.5407 10.7425 20.0765 10.7425 19.5827V14.1366C10.7428 13.7486 10.6209 13.3703 10.394 13.0554C10.1671 12.7406 9.84677 12.5053 9.47851 12.3829L9.03297 12.2344C8.80258 12.1576 8.55385 12.2821 8.4771 12.5124C8.40034 12.7426 8.52479 12.9915 8.75506 13.0682L9.20061 13.2168C9.39377 13.281 9.56179 13.4044 9.68081 13.5695C9.79982 13.7346 9.86378 13.9331 9.86359 14.1366V19.5827C9.86394 19.7101 9.83902 19.8363 9.79027 19.954C9.74152 20.0717 9.66991 20.1786 9.57959 20.2684L8.85836 20.9896C8.72991 21.1174 8.62808 21.2693 8.55875 21.4367C8.48942 21.604 8.45398 21.7835 8.45448 21.9646V29.1207H5.57585V21.9646C5.57634 21.7834 5.5409 21.604 5.47157 21.4366C5.40225 21.2693 5.30041 21.1173 5.17197 20.9896L4.45074 20.2683C4.36043 20.1785 4.28883 20.0716 4.24008 19.954C4.19133 19.8363 4.16641 19.7101 4.16674 19.5827V14.1366C4.16655 13.933 4.23051 13.7346 4.34952 13.5695C4.46854 13.4043 4.63656 13.2809 4.82973 13.2167L5.27533 13.0682C5.3859 13.0313 5.47731 12.9521 5.52944 12.8478C5.58156 12.7436 5.59015 12.6229 5.55329 12.5123C5.51644 12.4017 5.43717 12.3103 5.33293 12.2582C5.22868 12.2061 5.10799 12.1975 4.99742 12.2343L4.55182 12.3829C4.18356 12.5052 3.86322 12.7406 3.63632 13.0554C3.40942 13.3702 3.28749 13.7485 3.28784 14.1366V19.5827C3.28784 20.0765 3.48015 20.5406 3.8293 20.8898L4.55053 21.611C4.59709 21.6573 4.634 21.7124 4.65914 21.7731C4.68427 21.8338 4.69712 21.8988 4.69695 21.9645V29.1207H0.878899V5.57568H21.6058V29.1207Z" fill="#145062"/>
<path d="M7.01346 12.1515C8.03275 12.1515 8.86196 11.3223 8.86196 10.303C8.86196 9.28368 8.03275 8.45447 7.01346 8.45447C5.99417 8.45447 5.16496 9.28368 5.16496 10.303C5.16496 11.3223 5.99417 12.1515 7.01346 12.1515ZM7.01346 9.33337C7.54812 9.33337 7.98306 9.7683 7.98306 10.303C7.98306 10.8376 7.54812 11.2726 7.01346 11.2726C6.4788 11.2726 6.04386 10.8376 6.04386 10.303C6.04386 9.7683 6.4788 9.33337 7.01346 9.33337ZM15.4679 12.1515C16.4872 12.1515 17.3164 11.3223 17.3164 10.303C17.3164 9.28368 16.4872 8.45447 15.4679 8.45447C14.4486 8.45447 13.6194 9.28368 13.6194 10.303C13.6194 11.3223 14.4486 12.1515 15.4679 12.1515ZM15.4679 9.33337C16.0025 9.33337 16.4375 9.7683 16.4375 10.303C16.4375 10.8376 16.0025 11.2726 15.4679 11.2726C14.9332 11.2726 14.4983 10.8376 14.4983 10.303C14.4983 9.7683 14.9332 9.33337 15.4679 9.33337ZM5.44545 2.62895L7.01346 1.06093L8.58148 2.62895C8.66726 2.71473 8.77976 2.75768 8.8922 2.75768C9.00464 2.75768 9.11714 2.71479 9.20292 2.62895C9.28532 2.54654 9.33161 2.43477 9.33161 2.31823C9.33161 2.20169 9.28532 2.08992 9.20292 2.00751L7.32418 0.128715C7.24177 0.0463128 7.13 2.06014e-05 7.01346 2.06014e-05C6.89692 2.06014e-05 6.78515 0.0463128 6.70274 0.128715L4.82401 2.00745C4.74161 2.08986 4.69531 2.20163 4.69531 2.31817C4.69531 2.43471 4.74161 2.54648 4.82401 2.62889C4.8648 2.66971 4.91324 2.70209 4.96655 2.72419C5.01986 2.74628 5.07701 2.75766 5.13471 2.75766C5.19242 2.75767 5.24957 2.7463 5.30289 2.72422C5.3562 2.70213 5.40464 2.66976 5.44545 2.62895ZM15.1572 2.62895C15.198 2.66977 15.2464 2.70215 15.2997 2.72425C15.353 2.74634 15.4102 2.75771 15.4679 2.75771C15.5256 2.75771 15.5827 2.74634 15.6361 2.72425C15.6894 2.70215 15.7378 2.66977 15.7786 2.62895L17.6573 0.750214C17.7397 0.667802 17.786 0.556034 17.786 0.439493C17.786 0.322953 17.7397 0.211185 17.6573 0.128773C17.5749 0.0463714 17.4632 7.91946e-05 17.3466 7.91946e-05C17.2301 7.91946e-05 17.1183 0.0463714 17.0359 0.128773L15.4679 1.69679L13.8999 0.128715C13.7283 -0.0429049 13.45 -0.0429049 13.2784 0.128715C13.1068 0.300334 13.1068 0.578594 13.2784 0.750155L15.1572 2.62895Z" fill="#145062"/>
</svg>
