<svg width="26" height="26" viewBox="0 0 26 26" fill="none" xmlns="http://www.w3.org/2000/svg">
<path d="M22.6465 21.8975C22.7874 21.8192 22.9598 21.823 23.0967 21.9082L25.4502 23.373C25.5802 23.454 25.659 23.5968 25.6592 23.75C25.6592 23.9031 25.5801 24.0458 25.4502 24.127L23.0967 25.5928C23.0251 25.6372 22.9437 25.6591 22.8623 25.6592C22.7881 25.6592 22.7137 25.6408 22.6465 25.6035C22.5057 25.5253 22.4181 25.3769 22.418 25.2158V24.1943H7.91992V25.2158C7.91979 25.3768 7.83309 25.5252 7.69238 25.6035C7.62528 25.6408 7.55069 25.6592 7.47656 25.6592C7.39524 25.6592 7.31375 25.6372 7.24219 25.5928L4.88867 24.127C4.75861 24.0459 4.67969 23.9033 4.67969 23.75C4.67983 23.5968 4.75861 23.454 4.88867 23.373L7.24219 21.9082C7.37912 21.8232 7.55156 21.8193 7.69238 21.8975C7.83307 21.9758 7.91985 22.1241 7.91992 22.2852V23.3066H22.418V22.2852C22.418 22.124 22.5056 21.9757 22.6465 21.8975ZM5.96387 23.75L7.03223 24.416V23.085L5.96387 23.75ZM23.3057 24.416L24.375 23.75L23.3057 23.085V24.416ZM25.2148 0C25.4601 0 25.6592 0.199151 25.6592 0.444336V1.8418C25.6591 2.08695 25.4601 2.28613 25.2148 2.28613C24.9697 2.28602 24.7715 2.08688 24.7715 1.8418V0.887695H12.0859V10.9287H19.9883C20.2334 10.9287 20.4324 11.1271 20.4326 11.3721C20.4326 11.6173 20.2335 11.8164 19.9883 11.8164H12.0859V14.7471C12.0858 14.9921 11.8867 15.1904 11.6416 15.1904C11.3967 15.1902 11.1984 14.992 11.1982 14.7471V0.887695H5.56738V20.0918H11.1982V17.9434C11.1982 17.6983 11.3966 17.4992 11.6416 17.499C11.8868 17.499 12.0859 17.6982 12.0859 17.9434V20.0918H24.7705V11.8164H23.0078C22.7625 11.8164 22.5635 11.6173 22.5635 11.3721C22.5637 11.1271 22.7627 10.9287 23.0078 10.9287H24.7705V3.32129C24.7707 3.07631 24.9698 2.87799 25.2148 2.87793C25.46 2.87793 25.659 3.07627 25.6592 3.32129V20.5352C25.6592 20.7803 25.4601 20.9795 25.2148 20.9795H5.12305C4.87801 20.9793 4.67969 20.7802 4.67969 20.5352V0.444336C4.67969 0.199261 4.87801 0.000178525 5.12305 0H25.2148ZM1.90918 5.54199C2.15421 5.54207 2.3524 5.74033 2.35254 5.98535V17.4424H3.37402C3.53526 17.4424 3.68439 17.5299 3.7627 17.6709C3.841 17.8118 3.83621 17.9842 3.75098 18.1211L2.28613 20.4746C2.20515 20.6047 2.06248 20.6835 1.90918 20.6836C1.75593 20.6836 1.6133 20.6046 1.53223 20.4746L0.0673828 18.1211C-0.0178326 17.9842 -0.0226336 17.8119 0.0556641 17.6709C0.133976 17.5299 0.283133 17.4424 0.444336 17.4424H1.46484V5.98535C1.46498 5.74028 1.66408 5.54199 1.90918 5.54199ZM1.90918 19.3994L2.57422 18.3311H1.24316L1.90918 19.3994ZM1.90918 0C2.06236 3.42229e-05 2.20508 0.0789499 2.28613 0.208984L3.75098 2.5625C3.8362 2.69931 3.84094 2.87171 3.7627 3.0127C3.68439 3.15372 3.53526 3.24121 3.37402 3.24121H2.35352V5.09766C2.3535 5.3428 2.15431 5.54194 1.90918 5.54199C1.664 5.54199 1.46486 5.34283 1.46484 5.09766V3.24121H0.444336C0.283105 3.24121 0.133966 3.15366 0.0556641 3.0127C-0.0226363 2.87172 -0.0178414 2.6994 0.0673828 2.5625L1.53223 0.208984C1.61331 0.0789748 1.75595 0 1.90918 0ZM1.24316 2.35352H2.57422L1.90918 1.28418L1.24316 2.35352Z" fill="#145062"/>
</svg>
