<svg width="35" height="25" viewBox="0 0 35 25" fill="none" xmlns="http://www.w3.org/2000/svg">
<path d="M34.4178 18.6195H33.8536V14.1057C33.8528 13.5073 33.6148 12.9337 33.1917 12.5106C32.7686 12.0876 32.195 11.8495 31.5967 11.8488V2.2569C31.5959 1.65858 31.3578 1.08498 30.9348 0.661898C30.5117 0.238816 29.9381 0.000783763 29.3398 0H5.64226C5.04393 0.000783763 4.47034 0.238816 4.04725 0.661898C3.62417 1.08498 3.38614 1.65858 3.38536 2.2569V11.8488C2.78703 11.8495 2.21343 12.0876 1.79035 12.5106C1.36727 12.9337 1.12924 13.5073 1.12845 14.1057V18.6195H0.564226C0.414584 18.6195 0.271071 18.6789 0.165258 18.7847C0.0594451 18.8905 0 19.034 0 19.1837V21.4406C0 21.5902 0.0594451 21.7338 0.165258 21.8396C0.271071 21.9454 0.414584 22.0048 0.564226 22.0048H1.12845V24.2617C1.12845 24.4114 1.1879 24.5549 1.29371 24.6607C1.39952 24.7665 1.54304 24.826 1.69268 24.826H3.38536C3.51576 24.826 3.64215 24.7808 3.74298 24.6982C3.84381 24.6155 3.91284 24.5004 3.9383 24.3725L4.41225 22.0048H30.5698L31.0437 24.3725C31.0692 24.5004 31.1382 24.6155 31.239 24.6982C31.3399 24.7808 31.4663 24.826 31.5967 24.826H33.2893C33.439 24.826 33.5825 24.7665 33.6883 24.6607C33.7941 24.5549 33.8536 24.4114 33.8536 24.2617V22.0048H34.4178C34.5674 22.0048 34.7109 21.9454 34.8168 21.8396C34.9226 21.7338 34.982 21.5902 34.982 21.4406V19.1837C34.982 19.034 34.9226 18.8905 34.8168 18.7847C34.7109 18.6789 34.5674 18.6195 34.4178 18.6195ZM4.51381 2.2569C4.5142 1.95774 4.63322 1.67094 4.84476 1.4594C5.0563 1.24786 5.3431 1.12884 5.64226 1.12845H29.3398C29.6389 1.12884 29.9257 1.24786 30.1373 1.4594C30.3488 1.67094 30.4678 1.95774 30.4682 2.2569V11.8488H29.3398V9.59185C29.339 8.99352 29.1009 8.41992 28.6779 7.99684C28.2548 7.57376 27.6812 7.33572 27.0829 7.33494H20.3121C19.7138 7.33572 19.1402 7.57376 18.7171 7.99684C18.2941 8.41992 18.056 8.99352 18.0552 9.59185V11.8488H16.9268V9.59185C16.926 8.99352 16.688 8.41992 16.2649 7.99684C15.8418 7.57376 15.2682 7.33572 14.6699 7.33494H7.89917C7.30084 7.33572 6.72724 7.57376 6.30416 7.99684C5.88108 8.41992 5.64305 8.99352 5.64226 9.59185V11.8488H4.51381V2.2569ZM28.2113 9.59185V11.8488H19.1837V9.59185C19.1841 9.29268 19.3031 9.00588 19.5146 8.79434C19.7262 8.5828 20.013 8.46379 20.3121 8.46339H27.0829C27.382 8.46379 27.6688 8.5828 27.8804 8.79434C28.0919 9.00588 28.2109 9.29268 28.2113 9.59185ZM15.7983 9.59185V11.8488H6.77071V9.59185C6.77111 9.29268 6.89012 9.00588 7.10166 8.79434C7.3132 8.5828 7.6 8.46379 7.89917 8.46339H14.6699C14.969 8.46379 15.2558 8.5828 15.4674 8.79434C15.6789 9.00588 15.7979 9.29268 15.7983 9.59185ZM2.2569 14.1057C2.2573 13.8065 2.37631 13.5197 2.58785 13.3082C2.79939 13.0966 3.08619 12.9776 3.38536 12.9772H31.5967C31.8958 12.9776 32.1826 13.0966 32.3942 13.3082C32.6057 13.5197 32.7247 13.8065 32.7251 14.1057V18.6195H2.2569V14.1057ZM2.92269 23.6975H2.2569V22.0048H3.26123L2.92269 23.6975ZM32.7251 23.6975H32.0593L31.7208 22.0048H32.7251V23.6975ZM33.8536 20.8764H1.12845V19.7479H33.8536V20.8764Z" fill="#145062"/>
</svg>
