<svg width="27" height="25" viewBox="0 0 27 25" fill="none" xmlns="http://www.w3.org/2000/svg">
<path d="M25.4465 13.3929H25.0001V4.01786C25.0001 1.7857 23.2144 0 20.9822 0C19.0062 0 17.5851 1.46516 17.4261 3.61194C16.3887 3.80802 15.625 4.70147 15.625 5.80356C15.625 6.07142 15.8036 6.24997 16.0715 6.24997H19.6429C19.9108 6.24997 20.0893 6.07142 20.0893 5.80356C20.0893 4.71366 19.3426 3.82764 18.3228 3.61848C18.4562 2.19988 19.3082 0.892823 20.9822 0.892823C22.7233 0.892823 24.1072 2.27674 24.1072 4.01781V13.3928H10.6711C10.4692 12.3632 9.57889 11.6071 8.48219 11.6071C8.03578 11.0714 7.41076 10.7142 6.69649 10.7142C5.84829 10.7142 5.08934 11.2053 4.73218 11.9196C4.37502 11.7411 3.97324 11.6071 3.57145 11.6071C2.47475 11.6071 1.58444 12.3632 1.3825 13.3928H1.33929C0.580341 13.3928 0 13.9732 0 14.7321C0 15.4911 0.580341 16.0714 1.33929 16.0714H1.87579L3.08036 20.8482C3.43752 22.2321 4.68751 23.2143 6.1161 23.2143H6.47326L5.89292 24.375C5.75899 24.5983 5.84829 24.8661 6.07147 24.9554C6.1161 25 6.2054 25 6.25003 25C6.42858 25 6.56251 24.9107 6.65181 24.7768L7.43305 23.2143H19.8215L20.5804 24.7321C20.6697 24.9107 20.8036 25 20.9822 25C21.0715 25 21.1161 25 21.1607 24.9107C21.3393 24.8214 21.4286 24.5535 21.3393 24.3304L20.7801 23.2119C22.1622 23.1628 23.3575 22.1975 23.7054 20.8928L24.9212 16.0714H25.4465C26.2054 16.0714 26.7858 15.4911 26.7858 14.7321C26.7858 13.9732 26.2054 13.3929 25.4465 13.3929ZM19.1518 5.35715H16.6072C16.7857 4.82143 17.3214 4.46427 17.9018 4.46427C18.4822 4.46427 18.9733 4.82143 19.1518 5.35715ZM3.57145 12.5C3.97324 12.5 4.3304 12.6786 4.64288 12.9911C4.73218 13.125 4.91074 13.1696 5.08929 13.125C5.26785 13.0804 5.35715 12.9465 5.40178 12.7679C5.5357 12.0982 6.07142 11.6071 6.74106 11.6071C7.23215 11.6071 7.67856 11.8304 7.9018 12.2768C7.9911 12.4553 8.21428 12.5446 8.39289 12.5H8.52681C9.10716 12.5 9.59825 12.8572 9.7768 13.3929H2.32141C2.50002 12.8572 2.99106 12.5 3.57145 12.5ZM22.9018 20.625C22.634 21.6072 21.7411 22.3215 20.7143 22.3215H6.16072C5.13392 22.3215 4.24109 21.6072 3.97324 20.625L2.8125 16.0715H23.9732L22.9018 20.625ZM25.4465 15.1786H1.33929C1.07143 15.1786 0.892876 15 0.892876 14.7322C0.892876 14.4643 1.07143 14.2858 1.33929 14.2858H25.4465C25.7143 14.2858 25.8929 14.4643 25.8929 14.7322C25.8929 15 25.7143 15.1786 25.4465 15.1786Z" fill="#145062"/>
<path d="M16.0714 8.25863C16.3393 8.25863 16.5178 8.08008 16.5178 7.81222V7.58899C16.5178 7.32113 16.3393 7.14258 16.0714 7.14258C15.8036 7.14258 15.625 7.32113 15.625 7.58899V7.81222C15.625 8.08008 15.8036 8.25863 16.0714 8.25863ZM16.0714 10.3122C16.3393 10.3122 16.5178 10.089 16.5178 9.86583V9.37474C16.5178 9.10688 16.3393 8.92833 16.0714 8.92833C15.8036 8.92833 15.625 9.10688 15.625 9.37474V9.86583C15.625 10.1336 15.8036 10.3122 16.0714 10.3122ZM16.0714 12.0533C16.3393 12.0533 16.5178 11.8748 16.5178 11.6069V11.3837C16.5178 11.1158 16.3393 10.9373 16.0714 10.9373C15.8036 10.9373 15.625 11.1158 15.625 11.3837V11.6069C15.625 11.8747 15.8036 12.0533 16.0714 12.0533ZM17.8571 8.25863C18.125 8.25863 18.3035 8.08008 18.3035 7.81222V7.58899C18.3035 7.32113 18.125 7.14258 17.8571 7.14258C17.5893 7.14258 17.4107 7.32113 17.4107 7.58899V7.81222C17.4107 8.08008 17.5893 8.25863 17.8571 8.25863ZM17.4107 9.86578C17.4107 10.1336 17.5893 10.3122 17.8571 10.3122C18.125 10.3122 18.3035 10.089 18.3035 9.86578V9.37469C18.3035 9.10683 18.125 8.92828 17.8571 8.92828C17.5893 8.92828 17.4107 9.10683 17.4107 9.37469V9.86578ZM17.4107 11.6069C17.4107 11.8747 17.5893 12.0533 17.8571 12.0533C18.125 12.0533 18.3035 11.8747 18.3035 11.6069V11.3836C18.3035 11.1158 18.125 10.9372 17.8571 10.9372C17.5893 10.9372 17.4107 11.1158 17.4107 11.3836V11.6069ZM19.6429 8.25863C19.9107 8.25863 20.0893 8.08008 20.0893 7.81222V7.58899C20.0893 7.32113 19.9107 7.14258 19.6429 7.14258C19.375 7.14258 19.1965 7.32113 19.1965 7.58899V7.81222C19.1964 8.08008 19.375 8.25863 19.6429 8.25863ZM19.1964 9.86578C19.1964 10.1336 19.375 10.3122 19.6428 10.3122C19.9107 10.3122 20.0893 10.089 20.0893 9.86578V9.37469C20.0893 9.10683 19.9107 8.92828 19.6429 8.92828C19.375 8.92828 19.1965 9.10683 19.1965 9.37469L19.1964 9.86578ZM19.1964 11.6069C19.1964 11.8747 19.375 12.0533 19.6428 12.0533C19.9107 12.0533 20.0892 11.8747 20.0892 11.6069V11.3836C20.0892 11.1158 19.9107 10.9372 19.6428 10.9372C19.375 10.9372 19.1964 11.1158 19.1964 11.3836V11.6069Z" fill="#145062"/>
</svg>
