<svg width="29" height="29" viewBox="0 0 29 29" fill="none" xmlns="http://www.w3.org/2000/svg">
<path d="M27.5538 11.2096H25.2187V8.87454C25.2179 8.42305 25.0863 7.98146 24.8397 7.60324C24.5931 7.22503 24.2422 6.92642 23.8294 6.74356C24.1195 6.48194 24.3516 6.16232 24.5104 5.80538C24.6693 5.44844 24.7515 5.06213 24.7517 4.67142V3.7374C24.7509 3.40764 24.6916 3.08065 24.5766 2.77161C24.8233 2.7193 25.0513 2.60135 25.2366 2.43022C25.4219 2.25909 25.5575 2.04111 25.6292 1.7993C25.7009 1.55749 25.706 1.30081 25.644 1.05634C25.5819 0.811879 25.455 0.588699 25.2767 0.410355C25.0983 0.232011 24.8751 0.105118 24.6307 0.0430648C24.3862 -0.0189879 24.1295 -0.0138983 23.8877 0.0577966C23.6459 0.129492 23.4279 0.265133 23.2568 0.450406C23.0857 0.63568 22.9677 0.863715 22.9154 1.11045C22.4922 0.953105 22.0372 0.900657 21.5893 0.957592C21.1414 1.01453 20.714 1.17915 20.3437 1.43737C19.9733 1.69558 19.671 2.0397 19.4627 2.44027C19.2544 2.84083 19.1463 3.28591 19.1475 3.7374V4.67142C19.1477 5.06213 19.2299 5.44844 19.3888 5.80538C19.5477 6.16232 19.7797 6.48194 20.0699 6.74356C19.6571 6.92642 19.3061 7.22503 19.0596 7.60324C18.813 7.98146 18.6813 8.42305 18.6805 8.87454V11.2096H16.8125V7.94052C16.8117 7.48902 16.6801 7.04743 16.4335 6.66922C16.1869 6.291 15.8359 5.99239 15.4231 5.80954C15.7133 5.54791 15.9453 5.22829 16.1042 4.87135C16.2631 4.51441 16.3453 4.1281 16.3455 3.7374V2.80337C16.3455 2.06021 16.0503 1.34749 15.5248 0.821999C14.9993 0.296507 14.2865 0.0012891 13.5434 0.0012891C12.8002 0.0012891 12.0875 0.296507 11.562 0.821999C11.0365 1.34749 10.7413 2.06021 10.7413 2.80337V3.7374C10.7415 4.1281 10.8237 4.51441 10.9826 4.87135C11.1415 5.22829 11.3735 5.54791 11.6637 5.80954C11.2508 5.99239 10.8999 6.291 10.6533 6.66922C10.4067 7.04743 10.2751 7.48902 10.2743 7.94052V11.2096H7.0052V9.80857C7.0052 9.68471 6.956 9.56592 6.86842 9.47834C6.78083 9.39076 6.66205 9.34156 6.53819 9.34156H6.07117V8.40753H8.87325C8.99711 8.40753 9.1159 8.35833 9.20348 8.27075C9.29107 8.18316 9.34027 8.06438 9.34027 7.94052V2.33636C9.34027 2.2125 9.29107 2.09371 9.20348 2.00613C9.1159 1.91855 8.99711 1.86934 8.87325 1.86934H0.467013C0.343154 1.86934 0.224367 1.91855 0.136785 2.00613C0.049203 2.09371 0 2.2125 0 2.33636V7.94052C0 8.06438 0.049203 8.18316 0.136785 8.27075C0.224367 8.35833 0.343154 8.40753 0.467013 8.40753H3.26909V9.34156H2.80208C2.67822 9.34156 2.55943 9.39076 2.47185 9.47834C2.38427 9.56592 2.33507 9.68471 2.33507 9.80857V11.2096H0.467013C0.343154 11.2096 0.224367 11.2588 0.136785 11.3464C0.049203 11.434 0 11.5528 0 11.6766V13.5447C0 13.6685 0.049203 13.7873 0.136785 13.8749C0.224367 13.9625 0.343154 14.0117 0.467013 14.0117H0.934027V27.5551C0.934027 27.6789 0.98323 27.7977 1.07081 27.8853C1.15839 27.9729 1.27718 28.0221 1.40104 28.0221H26.6198C26.7436 28.0221 26.8624 27.9729 26.95 27.8853C27.0376 27.7977 27.0868 27.6789 27.0868 27.5551V14.0117H27.5538C27.6777 14.0117 27.7964 13.9625 27.884 13.8749C27.9716 13.7873 28.0208 13.6685 28.0208 13.5447V11.6766C28.0208 11.5528 27.9716 11.434 27.884 11.3464C27.7964 11.2588 27.6777 11.2096 27.5538 11.2096ZM20.0816 4.07411L21.0586 3.7472L23.8177 4.1423V4.67142C23.8177 5.16686 23.6209 5.64201 23.2705 5.99234C22.9202 6.34266 22.4451 6.53948 21.9496 6.53948C21.4542 6.53948 20.979 6.34266 20.6287 5.99234C20.2784 5.64201 20.0816 5.16686 20.0816 4.67142V4.07411ZM24.2847 0.935316C24.3771 0.935316 24.4674 0.962706 24.5442 1.01402C24.621 1.06534 24.6808 1.13828 24.7162 1.22361C24.7515 1.30895 24.7608 1.40285 24.7427 1.49344C24.7247 1.58403 24.6802 1.66724 24.6149 1.73256C24.5496 1.79787 24.4664 1.84235 24.3758 1.86037C24.2852 1.87839 24.1913 1.86914 24.106 1.83379C24.0206 1.79845 23.9477 1.73859 23.8964 1.66179C23.8451 1.58499 23.8177 1.4947 23.8177 1.40233C23.8177 1.27847 23.8669 1.15968 23.9545 1.0721C24.042 0.984519 24.1608 0.935316 24.2847 0.935316ZM21.9496 1.86934C22.3471 1.87099 22.7337 1.99961 23.0529 2.23644C23.3722 2.47327 23.6074 2.80592 23.7243 3.18585L21.081 2.80804C21.0092 2.79799 20.936 2.80454 20.8671 2.82719L20.2175 3.04388C20.3559 2.69755 20.5949 2.4006 20.9036 2.19127C21.2123 1.98194 21.5766 1.86982 21.9496 1.86934ZM19.6146 8.87454C19.6146 8.50296 19.7622 8.1466 20.0249 7.88386C20.2877 7.62111 20.644 7.4735 21.0156 7.4735H21.4826V8.40753H21.0156V9.34156H22.8837V8.40753H22.4166V7.4735H22.8837C23.2552 7.4735 23.6116 7.62111 23.8743 7.88386C24.1371 8.1466 24.2847 8.50296 24.2847 8.87454V11.2096H19.6146V8.87454ZM11.6753 3.14009L12.6523 2.81318L15.4114 3.20827V3.7374C15.4114 4.23283 15.2146 4.70798 14.8643 5.05831C14.514 5.40864 14.0388 5.60545 13.5434 5.60545C13.0479 5.60545 12.5728 5.40864 12.2225 5.05831C11.8721 4.70798 11.6753 4.23283 11.6753 3.7374V3.14009ZM13.5434 0.935316C13.9409 0.936961 14.3275 1.06558 14.6467 1.30241C14.966 1.53924 15.2012 1.87189 15.318 2.25183L12.6747 1.87401C12.6029 1.86416 12.5298 1.87071 12.4609 1.89316L11.8112 2.10985C11.9497 1.76352 12.1887 1.46657 12.4974 1.25725C12.8061 1.04792 13.1704 0.935795 13.5434 0.935316ZM11.2083 7.94052C11.2083 7.56894 11.3559 7.21258 11.6187 6.94983C11.8814 6.68709 12.2378 6.53948 12.6094 6.53948H13.0764V9.80857H14.0104V6.53948H14.4774C14.849 6.53948 15.2054 6.68709 15.4681 6.94983C15.7308 7.21258 15.8785 7.56894 15.8785 7.94052V11.2096H11.2083V7.94052ZM0.934027 7.4735V2.80337H8.40624V7.4735H6.07117V5.13844C6.07117 5.01458 6.02197 4.89579 5.93439 4.80821C5.84681 4.72063 5.72802 4.67142 5.60416 4.67142H3.73611C3.61225 4.67142 3.49346 4.72063 3.40588 4.80821C3.3183 4.89579 3.26909 5.01458 3.26909 5.13844V7.4735H0.934027ZM4.20312 5.60545H5.13715V9.34156H4.20312V5.60545ZM3.26909 10.2756H6.07117V11.2096H3.26909V10.2756ZM26.1528 27.0881H1.86805V14.0117H26.1528V27.0881ZM27.0868 13.0777H0.934027V12.1436H27.0868V13.0777Z" fill="#145062"/>
<path d="M5.60373 19.616H22.4162C22.5401 19.616 22.6589 19.5668 22.7464 19.4792C22.834 19.3916 22.8832 19.2728 22.8832 19.149V16.3469C22.8832 16.223 22.834 16.1042 22.7464 16.0167C22.6589 15.9291 22.5401 15.8799 22.4162 15.8799H5.60373C5.47987 15.8799 5.36109 15.9291 5.2735 16.0167C5.18592 16.1042 5.13672 16.223 5.13672 16.3469V19.149C5.13672 19.2728 5.18592 19.3916 5.2735 19.4792C5.36109 19.5668 5.47987 19.616 5.60373 19.616ZM6.07075 16.8139H21.9492V18.682H6.07075V16.8139ZM5.13672 21.484H22.8832V22.4181H5.13672V21.484ZM5.13672 24.2861H22.8832V25.2202H5.13672V24.2861Z" fill="#145062"/>
</svg>
