<svg width="28" height="28" viewBox="0 0 28 28" fill="none" xmlns="http://www.w3.org/2000/svg">
<path d="M7 15.8667H1.86667C1.37177 15.8661 0.897296 15.6693 0.547348 15.3193C0.1974 14.9694 0.000555825 14.4949 0 14V1.86667C0.000555825 1.37177 0.1974 0.897296 0.547348 0.547348C0.897296 0.1974 1.37177 0.000555825 1.86667 0H14C14.4949 0.000555825 14.9694 0.1974 15.3193 0.547348C15.6693 0.897296 15.8661 1.37177 15.8667 1.86667V9.8H14.9333V1.86667C14.933 1.61922 14.8346 1.38199 14.6596 1.20702C14.4847 1.03205 14.2474 0.933627 14 0.933334H1.86667C1.61922 0.933627 1.38199 1.03205 1.20702 1.20702C1.03205 1.38199 0.933627 1.61922 0.933334 1.86667V14C0.933627 14.2474 1.03205 14.4847 1.20702 14.6596C1.38199 14.8346 1.61922 14.933 1.86667 14.9333H7V15.8667Z" fill="#145062"/>
<path d="M6.06745 14H3.26745C3.14368 14 3.02498 13.9509 2.93746 13.8634C2.84995 13.7758 2.80078 13.6571 2.80078 13.5334V2.33337C2.80078 2.2096 2.84995 2.0909 2.93746 2.00338C3.02498 1.91587 3.14368 1.8667 3.26745 1.8667H8.86745C9.98136 1.8667 11.0496 2.3092 11.8373 3.09685C12.625 3.8845 13.0674 4.95279 13.0674 6.0667C13.0674 7.18061 12.625 8.2489 11.8373 9.03655C11.0496 9.8242 9.98136 10.2667 8.86745 10.2667H6.53412V13.5334C6.53412 13.6571 6.48495 13.7758 6.39743 13.8634C6.30991 13.9509 6.19122 14 6.06745 14ZM3.73411 13.0667H5.60078V9.80003C5.60078 9.67627 5.64995 9.55757 5.73747 9.47005C5.82498 9.38253 5.94368 9.33337 6.06745 9.33337H8.86745C9.73382 9.33337 10.5647 8.9892 11.1773 8.37658C11.79 7.76396 12.1341 6.93307 12.1341 6.0667C12.1341 5.20033 11.79 4.36944 11.1773 3.75682C10.5647 3.1442 9.73382 2.80003 8.86745 2.80003H3.73411V13.0667ZM8.86745 7.4667H6.06745C5.94368 7.4667 5.82498 7.41753 5.73747 7.33002C5.64995 7.2425 5.60078 7.1238 5.60078 7.00003V5.13337C5.60078 5.0096 5.64995 4.8909 5.73747 4.80338C5.82498 4.71587 5.94368 4.6667 6.06745 4.6667H8.86745C9.23875 4.6667 9.59485 4.8142 9.8574 5.07675C10.1199 5.3393 10.2674 5.6954 10.2674 6.0667C10.2674 6.438 10.1199 6.7941 9.8574 7.05665C9.59485 7.3192 9.23875 7.4667 8.86745 7.4667ZM6.53412 6.53337H8.86745C8.99122 6.53337 9.10992 6.4842 9.19743 6.39668C9.28495 6.30917 9.33412 6.19047 9.33412 6.0667C9.33412 5.94293 9.28495 5.82423 9.19743 5.73672C9.10992 5.6492 8.99122 5.60003 8.86745 5.60003H6.53412V6.53337ZM27.3974 18.3367C27.0275 17.9648 26.5287 17.7494 26.0043 17.7349L24.0959 12.0096C23.9722 11.6378 23.7346 11.3144 23.4167 11.0853C23.0988 10.8562 22.7168 10.733 22.325 10.7334H11.2766C10.8848 10.733 10.5028 10.8562 10.1849 11.0853C9.86696 11.3144 9.62932 11.6378 9.50567 12.0096L7.59724 17.7349C7.06219 17.7512 6.55451 17.9752 6.18182 18.3595C5.80914 18.7437 5.60073 19.258 5.60078 19.7933V23.3334C5.60134 23.8283 5.79818 24.3027 6.14813 24.6527C6.49808 25.0026 6.97255 25.1995 7.46745 25.2H10.7341V27.0667H7.93412V26.1334H7.00078V27.0667C7.00108 27.3141 7.0995 27.5514 7.27447 27.7263C7.44944 27.9013 7.68667 27.9997 7.93412 28H10.7341C10.9816 27.9997 11.2188 27.9013 11.3938 27.7263C11.5687 27.5514 11.6672 27.3141 11.6674 27.0667V25.2H21.9341V27.0667C21.9344 27.3141 22.0328 27.5514 22.2078 27.7263C22.3828 27.9013 22.62 27.9997 22.8675 28H25.6675C25.9149 27.9997 26.1521 27.9013 26.3271 27.7263C26.5021 27.5514 26.6005 27.3141 26.6008 27.0667V25.1409C27.0012 25.037 27.3559 24.8031 27.6092 24.476C27.8625 24.149 28.0003 23.7471 28.0008 23.3334V19.7933C28.0015 19.5227 27.9486 19.2546 27.845 19.0046C27.7414 18.7545 27.5893 18.5275 27.3974 18.3367ZM11.2766 11.6667H22.325C22.5209 11.6666 22.7119 11.7281 22.8709 11.8427C23.0298 11.9573 23.1487 12.119 23.2105 12.3049L23.3089 12.6H10.2927L10.3911 12.3049C10.4529 12.119 10.5717 11.9573 10.7307 11.8427C10.8897 11.7281 11.0807 11.6666 11.2766 11.6667ZM9.98162 13.5334H23.62L25.02 17.7334H8.58162L9.98162 13.5334ZM25.6675 27.0667H22.8675V25.2H25.6675L25.6679 27.0667H25.6675ZM27.0675 23.3334C27.0672 23.5808 26.9687 23.818 26.7938 23.993C26.6188 24.168 26.3816 24.2664 26.1341 24.2667H7.46745C7.22 24.2664 6.98278 24.168 6.80781 23.993C6.63284 23.818 6.53441 23.5808 6.53412 23.3334V19.7933C6.53413 19.4945 6.65283 19.208 6.8641 18.9967C7.07538 18.7854 7.36192 18.6667 7.66071 18.6667H25.9409C26.2396 18.6667 26.5262 18.7854 26.7375 18.9967C26.9487 19.208 27.0674 19.4945 27.0675 19.7933V23.3334Z" fill="#145062"/>
<path d="M9.33151 19.6001C8.96232 19.6001 8.60142 19.7096 8.29445 19.9147C7.98748 20.1198 7.74822 20.4113 7.60694 20.7524C7.46565 21.0935 7.42869 21.4688 7.50071 21.8309C7.57274 22.193 7.75052 22.5256 8.01158 22.7867C8.27264 23.0478 8.60525 23.2255 8.96734 23.2976C9.32944 23.3696 9.70477 23.3326 10.0459 23.1913C10.3869 23.0501 10.6785 22.8108 10.8836 22.5038C11.0887 22.1969 11.1982 21.836 11.1982 21.4668C11.1976 20.9719 11.0008 20.4974 10.6508 20.1474C10.3009 19.7975 9.82641 19.6007 9.33151 19.6001ZM9.33151 22.4001C9.14692 22.4001 8.96646 22.3454 8.81298 22.2428C8.65949 22.1402 8.53987 21.9945 8.46922 21.8239C8.39858 21.6534 8.3801 21.4657 8.41611 21.2847C8.45212 21.1036 8.54102 20.9373 8.67155 20.8068C8.80207 20.6763 8.96838 20.5874 9.14943 20.5514C9.33048 20.5154 9.51814 20.5338 9.68868 20.6045C9.85923 20.6751 10.005 20.7947 10.1076 20.9482C10.2101 21.1017 10.2648 21.2822 10.2648 21.4668C10.2646 21.7142 10.1661 21.9514 9.99115 22.1264C9.81618 22.3014 9.57896 22.3998 9.33151 22.4001ZM24.2648 19.6001C23.8957 19.6001 23.5348 19.7096 23.2278 19.9147C22.9208 20.1198 22.6816 20.4113 22.5403 20.7524C22.399 21.0935 22.362 21.4688 22.434 21.8309C22.5061 22.193 22.6839 22.5256 22.9449 22.7867C23.206 23.0478 23.5386 23.2255 23.9007 23.2976C24.2628 23.3696 24.6381 23.3326 24.9792 23.1913C25.3203 23.0501 25.6118 22.8108 25.8169 22.5038C26.022 22.1969 26.1315 21.836 26.1315 21.4668C26.131 20.9719 25.9341 20.4974 25.5842 20.1474C25.2342 19.7975 24.7597 19.6007 24.2648 19.6001ZM24.2648 22.4001C24.0803 22.4001 23.8998 22.3454 23.7463 22.2428C23.5928 22.1402 23.4732 21.9945 23.4026 21.8239C23.3319 21.6534 23.3134 21.4657 23.3494 21.2847C23.3855 21.1036 23.4744 20.9373 23.6049 20.8068C23.7354 20.6763 23.9017 20.5874 24.0828 20.5514C24.2638 20.5154 24.4515 20.5338 24.622 20.6045C24.7926 20.6751 24.9383 20.7947 25.0409 20.9482C25.1434 21.1017 25.1982 21.2822 25.1982 21.4668C25.1979 21.7142 25.0995 21.9514 24.9245 22.1264C24.7495 22.3014 24.5123 22.3998 24.2648 22.4001ZM12.1315 20.0668H21.4648V21.0001H12.1315V20.0668ZM12.1315 21.9334H21.4648V22.8668H12.1315V21.9334Z" fill="#145062"/>
</svg>
