<svg width="34" height="34" viewBox="0 0 34 34" fill="none" xmlns="http://www.w3.org/2000/svg">
<path d="M18.153 9.59032C18.1279 9.46074 18.0524 9.3464 17.9431 9.27233C17.8339 9.19827 17.6997 9.17051 17.57 9.19514C17.4403 9.21976 17.3257 9.29477 17.2512 9.40373C17.1767 9.5127 17.1484 9.64674 17.1725 9.77653C17.1784 9.80794 17.325 10.5552 17.8764 11.2962C18.391 11.9878 19.3641 12.8122 21.0771 12.8122C23.5452 12.8122 24.072 14.4374 24.096 14.5163C24.1746 14.7869 24.4712 14.9399 24.7376 14.849C24.9849 14.7646 25.1264 14.4927 25.0555 14.2416C25.0275 14.1425 24.3326 11.8141 21.0771 11.8141C18.6252 11.8141 18.1707 9.67898 18.153 9.59032ZM21.5767 7.11722C21.3032 7.09278 21.0602 7.29652 21.0364 7.57111C21.0338 7.60093 20.9763 8.31054 21.2843 9.11559C21.5719 9.86757 22.2378 10.8549 23.7764 11.288C25.9425 11.8977 26.0051 13.4495 26.0068 13.5235C26.0093 13.7938 26.2359 14.0182 26.5062 14.0179C26.7782 14.0177 27.0051 13.7904 27.0048 13.5185C27.0048 13.4221 26.9693 11.1499 24.0469 10.3273C21.8977 9.72227 22.0244 7.73925 22.0307 7.65764C22.0421 7.52578 22.0007 7.39477 21.9156 7.29343C21.8305 7.19208 21.7086 7.1287 21.5767 7.11722Z" fill="#145062"/>
<path d="M26.5052 2.90361C26.3955 2.83013 26.2612 2.8031 26.1316 2.82845C26.0021 2.85379 25.8878 2.92944 25.8139 3.03883C25.74 3.14823 25.7125 3.28245 25.7373 3.41211C25.7621 3.54177 25.8373 3.65631 25.9464 3.73064C30.3644 6.71533 33.002 11.6758 33.002 17C33.002 21.2743 31.3375 25.2927 28.3151 28.3151C25.2927 31.3374 21.2743 33.002 17 33.002C12.7257 33.002 8.70725 31.3375 5.68491 28.3151C2.66249 25.2927 0.99802 21.2743 0.99802 17C0.99802 12.7257 2.66249 8.70725 5.68491 5.68491C8.70725 2.66256 12.7257 0.99802 17 0.99802C19.5625 0.99802 22.0102 1.58532 24.2753 2.74357C24.393 2.80278 24.5294 2.81302 24.6546 2.77206C24.7799 2.73109 24.8838 2.64225 24.9438 2.52492C25.0038 2.40759 25.015 2.27129 24.9748 2.14577C24.9347 2.02025 24.8465 1.9157 24.7296 1.85493C22.3227 0.624086 19.722 0 17 0C12.4591 0 8.19008 1.76833 4.97914 4.97914C1.76833 8.19008 0 12.4591 0 17C0 21.5409 1.76833 25.8099 4.97914 29.0209C8.19008 32.2317 12.4591 34 17 34C21.5409 34 25.8099 32.2317 29.0209 29.0209C32.2317 25.8099 34 21.5409 34 17C34 11.3438 31.1982 6.07418 26.5052 2.90361Z" fill="#145062"/>
<path d="M27.77 25.9284C27.8456 25.9282 27.9202 25.9108 27.9882 25.8777C28.0562 25.8446 28.1158 25.7966 28.1627 25.7373C30.1338 23.2229 31.1756 20.2016 31.1756 16.9999C31.1756 9.1845 24.8172 2.82617 17.0018 2.82617C13.8001 2.82617 10.7788 3.86802 8.26447 5.83902C8.03238 6.02084 8.01087 6.37605 8.21945 6.58463L12.7458 11.1109C12.8397 11.2026 12.9661 11.2536 13.0973 11.2528C13.2286 11.252 13.3543 11.1994 13.4471 11.1066C13.54 11.0138 13.5925 10.8881 13.5933 10.7568C13.5941 10.6255 13.5431 10.4992 13.4515 10.4053L9.33169 6.28547C11.5751 4.67326 14.2149 3.82426 17.0019 3.82426C24.267 3.82426 30.1775 9.73481 30.1775 16.9999C30.1775 19.7869 29.3285 22.4267 27.7163 24.67L23.4534 20.4071H26.7558C27.3909 20.4071 27.9076 19.8903 27.9076 19.2552V17.2901C27.9076 16.6549 27.3909 16.1382 26.7558 16.1382H19.1845L14.8629 11.8166C14.7689 11.7249 14.6426 11.674 14.5113 11.6748C14.38 11.6756 14.2543 11.7281 14.1615 11.8209C14.0687 11.9138 14.0162 12.0394 14.0154 12.1707C14.0145 12.302 14.0655 12.4283 14.1572 12.5223L27.4172 25.7823C27.5107 25.8759 27.6376 25.9284 27.77 25.9284ZM25.5867 17.1363H26.7558C26.7966 17.1363 26.8357 17.1525 26.8646 17.1814C26.8934 17.2102 26.9096 17.2493 26.9097 17.2901V19.2552C26.9096 19.296 26.8934 19.3351 26.8646 19.364C26.8357 19.3928 26.7966 19.409 26.7558 19.4091H25.5867V17.1363ZM24.5887 17.1363V19.409H22.4554L20.1826 17.1363H24.5887ZM17.0019 30.1756C14.1713 30.1756 11.4739 29.2917 9.20127 27.6193C9.09454 27.5433 8.96218 27.5123 8.83279 27.533C8.70339 27.5537 8.58733 27.6245 8.50966 27.73C8.432 27.8356 8.39896 27.9674 8.41768 28.0971C8.4364 28.2268 8.50538 28.344 8.60972 28.4233C11.055 30.2226 13.9569 31.1737 17.0019 31.1737C20.2035 31.1737 23.2247 30.1319 25.7389 28.161C25.971 27.9791 25.9925 27.6241 25.784 27.4154L6.58639 8.21783C6.37774 8.00918 6.02266 8.03083 5.84078 8.26285C3.86991 10.7771 2.82812 13.7983 2.82812 16.9999C2.82812 20.8163 4.32286 24.3959 7.03695 27.0794C7.08355 27.1255 7.13877 27.1619 7.19946 27.1866C7.26015 27.2114 7.32511 27.2239 7.39064 27.2235C7.45617 27.2232 7.52099 27.2099 7.58139 27.1845C7.64179 27.159 7.69658 27.122 7.74265 27.0753C7.78873 27.0287 7.82517 26.9735 7.8499 26.9128C7.87464 26.8521 7.88717 26.7872 7.8868 26.7217C7.88642 26.6561 7.87314 26.5913 7.84771 26.5309C7.82228 26.4705 7.78521 26.4157 7.7386 26.3696C5.21563 23.8752 3.82614 20.5475 3.82614 16.9999C3.82614 14.2131 4.67515 11.5733 6.28723 9.33007L13.0953 16.1382H7.24786C6.61275 16.1382 6.09598 16.6549 6.09598 17.2901V19.2551C6.09598 19.8903 6.61275 20.407 7.24786 20.407H17.3642L24.6717 27.7146C22.4285 29.3266 19.7887 30.1756 17.0019 30.1756ZM11.6773 19.4091H7.24793C7.20713 19.409 7.16803 19.3928 7.13919 19.364C7.11034 19.3351 7.09412 19.296 7.09406 19.2552V17.2901C7.09412 17.2493 7.11034 17.2102 7.13919 17.1814C7.16803 17.1525 7.20713 17.1363 7.24793 17.1363H11.6773V19.4091ZM12.6753 19.4091V17.1363H14.0934L16.3662 19.4091H12.6753Z" fill="#145062"/>
</svg>
