<svg width="33" height="21" viewBox="0 0 33 21" fill="none" xmlns="http://www.w3.org/2000/svg">
<path d="M28.0431 9.059C28.9926 8.39176 29.6214 7.28184 29.6214 6.03078C29.6214 3.98416 27.9661 2.32891 25.9195 2.32891C23.8729 2.32891 22.2176 3.98416 22.2176 6.03078C22.2176 7.28184 22.84 8.39176 23.7959 9.059C22.9811 9.34129 22.2369 9.77756 21.6081 10.3421C20.742 9.60433 19.7219 9.03975 18.6056 8.70613C19.9593 7.88492 20.8703 6.39006 20.8703 4.68989C20.8703 2.09794 18.7724 0 16.1804 0C13.5885 0 11.4906 2.10436 11.4906 4.68989C11.4906 6.39006 12.3952 7.88492 13.7553 8.70613C12.6518 9.03975 11.6445 9.59792 10.7848 10.3229C10.1561 9.77114 9.42469 9.34129 8.62273 9.06541C9.57226 8.39818 10.201 7.28826 10.201 6.03719C10.201 3.99058 8.54574 2.33532 6.49913 2.33532C4.45251 2.33532 2.79725 3.99058 2.79725 6.03719C2.79725 7.28826 3.41958 8.39818 4.37552 9.06541C1.82848 9.94437 0 12.3631 0 15.2053V15.6287C0 15.6415 0.0128314 15.6544 0.0256629 15.6544H7.87209C7.82718 16.0072 7.80152 16.3729 7.80152 16.7386V17.1749C7.80152 19.0611 9.32846 20.588 11.2147 20.588H21.159C23.0453 20.588 24.5722 19.0611 24.5722 17.1749V16.7386C24.5722 16.3729 24.5465 16.0072 24.5016 15.6544H32.3994C32.4122 15.6544 32.4251 15.6415 32.4251 15.6287V15.2053C32.4122 12.3567 30.5902 9.93795 28.0431 9.059ZM23.2442 6.02436C23.2442 4.54875 24.4439 3.34901 25.9195 3.34901C27.3951 3.34901 28.5949 4.54875 28.5949 6.02436C28.5949 7.48073 27.4208 8.66764 25.9708 8.69972H25.8682C24.4118 8.67406 23.2442 7.48715 23.2442 6.02436ZM12.5042 4.68989C12.5042 2.66894 14.1467 1.02652 16.1676 1.02652C18.1886 1.02652 19.831 2.66894 19.831 4.68989C19.831 6.64027 18.2976 8.23779 16.3793 8.34685H15.9559C14.0376 8.23779 12.5042 6.64027 12.5042 4.68989ZM3.80452 6.02436C3.80452 4.54875 5.00426 3.34901 6.47988 3.34901C7.95549 3.34901 9.15523 4.54875 9.15523 6.02436C9.15523 7.48073 7.98116 8.66764 6.5312 8.69972H6.42855C4.9786 8.67406 3.80452 7.48715 3.80452 6.02436ZM8.05173 14.6214H1.03935C1.32805 11.8883 3.63771 9.74548 6.44138 9.72623H6.51837C7.85284 9.73265 9.07183 10.2267 10.0149 11.0286C9.09108 12.0295 8.40459 13.2613 8.05173 14.6214ZM23.5329 17.1749C23.5329 18.4901 22.4614 19.5615 21.1462 19.5615H11.2018C9.88663 19.5615 8.8152 18.4901 8.8152 17.1749V16.7386C8.8152 12.7545 11.9974 9.49527 15.9559 9.37978C16.0265 9.3862 16.1035 9.3862 16.174 9.3862C16.2446 9.3862 16.3216 9.3862 16.3922 9.37978C20.3507 9.49527 23.5329 12.7545 23.5329 16.7386V17.1749ZM24.2963 14.6214C23.9435 13.2677 23.2698 12.0551 22.3524 11.0543C23.3019 10.2331 24.5337 9.73907 25.881 9.72623H25.958C28.7617 9.74548 31.0713 11.8883 31.36 14.6214H24.2963Z" fill="#145062"/>
</svg>
