<svg width="33" height="21" viewBox="0 0 33 21" fill="none" xmlns="http://www.w3.org/2000/svg">
<path d="M28.983 17.2042C27.421 17.2042 25.9109 16.7876 24.7134 16.0066C23.5158 16.7876 22.0578 17.2042 20.4958 17.2042C18.9337 17.2042 17.4237 16.7876 16.2261 16.0066C15.0285 16.7876 13.5185 17.2042 11.9564 17.2042C10.3944 17.2042 8.88436 16.7876 7.68677 16.0066C6.48918 16.7876 4.97918 17.2042 3.41711 17.2042C2.37573 17.2042 1.28228 16.9959 0.345034 16.6314C0.0846884 16.5273 -0.0715188 16.2148 0.0326193 15.9545C0.136757 15.6942 0.449172 15.538 0.709517 15.6421C1.54262 15.9545 2.4278 16.1628 3.36504 16.1628C4.82297 16.1628 6.22884 15.7462 7.32229 14.9652C7.53057 14.809 7.73884 14.809 7.94712 14.9652C8.9885 15.7462 10.3944 16.1628 11.9044 16.1628C13.3623 16.1628 14.7682 15.7462 15.8616 14.9652C16.0699 14.809 16.2782 14.809 16.4864 14.9652C17.5278 15.7462 18.9337 16.1628 20.4437 16.1628C21.9537 16.1628 23.3075 15.7462 24.4009 14.9652C24.6092 14.809 24.8175 14.809 25.0258 14.9652C26.0672 15.7462 27.473 16.1628 28.983 16.1628C29.9203 16.1628 30.8575 16.0066 31.6385 15.6421C31.8989 15.538 32.2113 15.6421 32.3154 15.9545C32.4196 16.2148 32.3154 16.5273 32.003 16.6314C31.1179 16.9959 30.0244 17.2042 28.983 17.2042ZM28.983 20.3283C27.421 20.3283 25.9109 19.9118 24.7134 19.1307C23.5158 19.9118 22.0578 20.3283 20.4958 20.3283C18.9337 20.3283 17.4237 19.9118 16.2261 19.1307C15.0285 19.9118 13.5185 20.3283 11.9564 20.3283C10.3944 20.3283 8.88436 19.9118 7.68677 19.1307C6.48918 19.9118 4.97918 20.3283 3.41711 20.3283C2.37573 20.3283 1.28228 20.12 0.345034 19.7555C0.0846884 19.6514 -0.0715188 19.339 0.0326193 19.0786C0.136757 18.8183 0.449172 18.6621 0.709517 18.7662C1.54262 19.0786 2.4278 19.2869 3.36504 19.2869C4.82297 19.2869 6.22884 18.8704 7.32229 18.0893C7.53057 17.9331 7.73884 17.9331 7.94712 18.0893C8.9885 18.8704 10.3944 19.2869 11.9044 19.2869C13.3623 19.2869 14.7682 18.8704 15.8616 18.0893C16.0699 17.9331 16.2782 17.9331 16.4864 18.0893C17.5278 18.8704 18.9337 19.2869 20.4437 19.2869C21.9537 19.2869 23.3075 18.8704 24.4009 18.0893C24.6092 17.9331 24.8175 17.9331 25.0258 18.0893C26.0672 18.8704 27.473 19.2869 28.983 19.2869C29.9203 19.2869 30.8575 19.1307 31.6385 18.7662C31.8989 18.6621 32.2113 18.7662 32.3154 19.0786C32.4196 19.3911 32.3154 19.6514 32.003 19.7555C31.1179 20.12 30.0244 20.3283 28.983 20.3283ZM29.3996 11.1121C28.8268 11.1121 28.2541 11.0079 27.6813 10.6955L27.6292 10.6435C26.7961 10.0707 26.4316 9.18552 26.692 8.24828C26.9003 7.46725 27.473 6.84242 28.202 6.47793C27.8375 6.21759 27.421 6.00931 26.9523 6.00931C25.9109 5.90517 24.6613 6.47793 23.5158 7.57138C21.7975 9.18552 18.9337 10.5393 16.9551 10.0186C15.9658 9.75829 15.2889 9.02932 15.0285 7.98794C14.7161 6.79035 15.0285 5.6969 15.8616 5.02C16.6947 4.3431 17.8923 4.23896 19.142 4.65552C18.9858 3.45793 18.1006 2.36448 16.7468 1.68758C15.0285 0.802404 12.2689 0.698266 9.8216 2.98931C8.46781 4.39517 7.73884 5.54069 7.11401 6.58207C5.86436 8.61277 5.08332 9.91449 0.761586 10.4352C0.449172 10.4873 0.240896 10.279 0.188827 9.96656C0.136757 9.65415 0.345034 9.44587 0.657448 9.3938C4.45849 8.92518 5.08332 7.93587 6.22884 6.00931C6.85367 4.96793 7.6347 3.71827 9.09264 2.20827C11.9564 -0.499323 15.1327 -0.343115 17.2154 0.698266C19.2461 1.73965 20.3916 3.61413 20.1834 5.48862C20.1834 5.64483 20.0792 5.80103 19.923 5.90517C19.7668 6.00931 19.6106 5.95724 19.4544 5.90517C18.3609 5.28034 17.2675 5.28034 16.5906 5.80104C16.0699 6.21759 15.9137 6.89449 16.122 7.67552C16.3302 8.35242 16.6947 8.82104 17.3196 8.97725C18.8816 9.3938 21.3809 8.19621 22.8909 6.79035C24.2968 5.48862 25.8068 4.81172 27.1606 4.91586C28.1499 5.02 29.0351 5.48862 29.712 6.3738C29.8161 6.53 29.8682 6.73828 29.7641 6.89449C29.712 7.05069 29.5037 7.2069 29.3475 7.2069C28.6706 7.25897 27.9937 7.77966 27.8375 8.45656C27.7334 8.76897 27.7854 9.28966 28.3582 9.70622C29.3475 10.1748 30.2327 10.0707 31.8468 9.3938C32.1072 9.28966 32.4196 9.3938 32.5237 9.65415C32.6279 9.91449 32.5237 10.2269 32.2634 10.331C31.0658 10.8517 30.2327 11.1121 29.3996 11.1121ZM28.983 14.08C27.421 14.08 25.9109 13.6635 24.7134 12.8824C23.5158 13.6635 22.0578 14.08 20.4958 14.08C18.9337 14.08 17.4237 13.6635 16.2261 12.8824C15.0285 13.6635 13.5185 14.08 11.9564 14.08C10.3944 14.08 8.88436 13.6635 7.68677 12.8824C6.48918 13.6635 4.97918 14.08 3.41711 14.08C2.37573 14.08 1.28228 13.8717 0.345034 13.5073C0.0846884 13.4031 -0.0715188 13.0907 0.0326193 12.8304C0.240896 12.5179 0.55331 12.4138 0.813655 12.5179C1.64676 12.8304 2.53193 13.0386 3.46918 13.0386C4.92711 13.0386 6.33298 12.6221 7.42643 11.841C7.6347 11.6848 7.84298 11.6848 8.05126 11.841C9.09264 12.6221 10.4985 13.0386 12.0085 13.0386C13.4664 13.0386 14.8723 12.6221 15.9658 11.841C16.174 11.6848 16.3823 11.6848 16.5906 11.841C17.632 12.6221 19.0378 13.0386 20.5478 13.0386C22.0578 13.0386 23.4116 12.6221 24.5051 11.841C24.7134 11.6848 24.9216 11.6848 25.1299 11.841C26.1713 12.6221 27.5772 13.0386 29.0872 13.0386C30.0244 13.0386 30.9616 12.8824 31.7427 12.5179C32.003 12.4138 32.3154 12.5179 32.4196 12.8304C32.5237 13.0907 32.4196 13.4031 32.1072 13.5073C31.1179 13.8717 30.0244 14.08 28.983 14.08Z" fill="#145062"/>
</svg>
