<svg width="17" height="22" viewBox="0 0 17 22" fill="none" xmlns="http://www.w3.org/2000/svg">
<path d="M8.1269 0C3.64563 0 0 3.64563 0 8.1269C0 9.60217 0.661625 11.1888 0.689352 11.2558C0.903042 11.763 1.32468 12.5508 1.62873 13.0126L7.20091 21.4555C7.42894 21.8016 7.76645 22 8.1269 22C8.48735 22 8.82486 21.8016 9.05289 21.456L14.6256 13.0126C14.9301 12.5508 15.3512 11.763 15.5649 11.2558C15.5927 11.1893 16.2538 9.60265 16.2538 8.1269C16.2538 3.64563 12.6082 0 8.1269 0ZM14.6834 10.8848C14.4927 11.3394 14.1002 12.0723 13.8272 12.4863L8.25454 20.9296C8.14459 21.0965 8.10969 21.0965 7.99974 20.9296L2.42707 12.4863C2.15411 12.0723 1.76162 11.3389 1.57088 10.8843C1.56275 10.8647 0.956106 9.40426 0.956106 8.1269C0.956106 4.17292 4.17292 0.956106 8.1269 0.956106C12.0809 0.956106 15.2977 4.17292 15.2977 8.1269C15.2977 9.40617 14.6896 10.8704 14.6834 10.8848Z" fill="black"/>
<path d="M8.1267 3.82471C5.75412 3.82471 3.82422 5.75508 3.82422 8.12718C3.82422 10.4993 5.75412 12.4297 8.1267 12.4297C10.4993 12.4297 12.4292 10.4993 12.4292 8.12718C12.4292 5.75508 10.4993 3.82471 8.1267 3.82471ZM8.1267 11.4736C6.28189 11.4736 4.78032 9.97247 4.78032 8.12718C4.78032 6.2819 6.28189 4.78081 8.1267 4.78081C9.9715 4.78081 11.4731 6.2819 11.4731 8.12718C11.4731 9.97247 9.9715 11.4736 8.1267 11.4736Z" fill="black"/>
</svg>
