<svg width="151" height="29" viewBox="0 0 151 29" fill="none" xmlns="http://www.w3.org/2000/svg">
<path fill-rule="evenodd" clip-rule="evenodd" d="M79.1149 20.0513V8.94727H88.8863C89.7403 8.94727 90.4126 9.12593 90.8385 9.48416C91.2054 9.78238 91.4503 10.3793 91.4503 11.0966V13.6038C91.4503 14.3206 91.2054 14.9171 90.8385 15.2153C90.4126 15.574 89.7403 15.7522 88.8863 15.7522H81.7403V20.0513H79.1149ZM87.6644 10.8575H81.7403V13.8415H87.6644C88.1522 13.8415 88.4581 13.7833 88.6422 13.6038C88.7644 13.4842 88.8863 13.2451 88.8863 12.9469V11.7526C88.8863 11.454 88.7644 11.2149 88.6422 11.0966C88.4581 10.9175 88.1522 10.8575 87.6644 10.8575Z" fill="#828282"/>
<path fill-rule="evenodd" clip-rule="evenodd" d="M93.6649 20.0513V8.94727H103.375C104.292 8.94727 104.962 9.12593 105.388 9.48416C105.756 9.78238 106.001 10.3793 106.001 11.0966V13.7229C106.001 14.4984 105.756 15.0371 105.388 15.3353C104.962 15.6931 104.292 15.8722 103.375 15.8722H101.909L107.162 20.0513H103.375L98.7954 15.8722H96.2895V20.0513H93.6649ZM102.215 10.8575H96.2895V13.962H102.215C102.702 13.962 103.009 13.9015 103.191 13.7833C103.313 13.6633 103.437 13.4242 103.437 13.0669V11.7526C103.437 11.454 103.313 11.2149 103.191 11.0966C103.009 10.9175 102.702 10.8575 102.215 10.8575Z" fill="#828282"/>
<path fill-rule="evenodd" clip-rule="evenodd" d="M109.116 20.0513V8.94727H120.778V10.8575H111.802V13.3051H117.053V15.2153H111.802V17.9615H120.9V20.0513H109.116Z" fill="#828282"/>
<path fill-rule="evenodd" clip-rule="evenodd" d="M133.307 10.9175H125.858V13.3051H132.942C134.04 13.3051 134.834 13.4842 135.201 13.842C135.626 14.2011 135.811 14.9171 135.811 15.9322V17.4251C135.811 18.4384 135.626 19.1549 135.201 19.514C134.834 19.8722 134.04 20.0513 132.942 20.0513H125.921C124.82 20.0513 124.09 19.8722 123.66 19.514C123.295 19.1549 123.111 18.4384 123.111 17.4251V17.1255L125.433 16.6486V17.9615H133.431V15.4544H126.347C125.249 15.4544 124.517 15.2753 124.15 14.8575C123.721 14.4984 123.537 13.842 123.537 12.8273V11.574C123.537 10.5593 123.721 9.90238 124.15 9.54416C124.517 9.12593 125.249 8.94727 126.347 8.94727H132.819C133.918 8.94727 134.651 9.12593 135.018 9.48416C135.443 9.84238 135.626 10.4993 135.626 11.394V11.634L133.307 12.1704V10.9175Z" fill="#828282"/>
<path fill-rule="evenodd" clip-rule="evenodd" d="M148.356 10.9175H140.909V13.3051H147.992C149.091 13.3051 149.824 13.4842 150.249 13.842C150.617 14.2011 150.8 14.9171 150.8 15.9322V17.4251C150.8 18.4384 150.617 19.1549 150.249 19.514C149.824 19.8722 149.091 20.0513 147.992 20.0513H140.97C139.871 20.0513 139.079 19.8722 138.71 19.514C138.281 19.1549 138.101 18.4384 138.101 17.4251V17.1255L140.423 16.6486V17.9615H148.479V15.4544H141.397C140.299 15.4544 139.564 15.2753 139.139 14.8575C138.772 14.4984 138.588 13.842 138.588 12.8273V11.574C138.588 10.5593 138.772 9.90238 139.139 9.54416C139.564 9.12593 140.299 8.94727 141.397 8.94727H147.869C148.908 8.94727 149.639 9.12593 150.067 9.48416C150.494 9.84238 150.679 10.4993 150.679 11.394V11.634L148.356 12.1704V10.9175Z" fill="#828282"/>
<path fill-rule="evenodd" clip-rule="evenodd" d="M61.9089 20.0513L67.2821 14.3798L61.7867 8.94727H65.3285L68.9326 12.7078L72.4112 8.94727H75.4026L70.458 14.0811L76.6249 20.0513H73.0221L68.8717 15.7522L65.023 20.0513H61.9089Z" fill="#828282"/>
<path fill-rule="evenodd" clip-rule="evenodd" d="M7.395 20.0513L0.799988 8.94727H3.85318L8.43273 17.0064L12.8287 8.94727H15.4541L9.22637 20.0513H7.395Z" fill="#828282"/>
<path fill-rule="evenodd" clip-rule="evenodd" d="M17.5258 20.0513V8.94727H19.2962L27.2944 15.514C27.6003 15.7522 27.8458 15.9317 28.0281 16.1113C28.2726 16.29 28.4553 16.5286 28.639 16.7086C28.5776 16.1113 28.5158 15.6331 28.5158 15.3953V14.7971V8.94727H30.8981V20.0513H29.0672L20.7003 13.186C20.5185 13.0069 20.3344 12.8873 20.2121 12.7078C20.0285 12.5886 19.909 12.4695 19.7862 12.2904C19.8471 12.6482 19.8471 12.9469 19.8471 13.3051C19.909 13.6038 19.909 13.8415 19.909 14.0811V20.0513H17.5258Z" fill="#828282"/>
<path fill-rule="evenodd" clip-rule="evenodd" d="M59.0163 27.2663C59.0163 28.0027 58.4059 28.5996 57.6527 28.5996H34.9254C34.1722 28.5996 33.5617 28.0027 33.5617 27.2663V1.93294C33.5617 1.1965 34.1722 0.599609 34.9254 0.599609H57.6527C58.4059 0.599609 59.0163 1.1965 59.0163 1.93294V27.2663Z" fill="#9F224E"/>
<path fill-rule="evenodd" clip-rule="evenodd" d="M41.7435 11.3134V11.7578V12.6001H43.3322H48.1072V16.6001H43.3322H41.7435V17.5356V17.9801V18.8689V20.2023V21.4889H43.3322H55.3799V25.0445H42.7844H37.1981V4.1556H42.7844H55.3799V7.71115H43.3322H41.7435V9.09115V10.4245V11.3134ZM43.1072 9.04449H55.5117C56.2645 9.04449 56.7436 8.49382 56.7436 7.75782V4.20227C56.7436 3.46627 56.2645 2.82227 55.5117 2.82227H42.7844H37.3299C36.5767 2.82227 35.8344 3.46627 35.8344 4.20227V25.0912C35.8344 25.8272 36.5767 26.3778 37.3299 26.3778H42.7844H55.5117C56.2645 26.3778 56.7436 25.8272 56.7436 25.0912V21.5356C56.7436 20.7996 56.2645 20.1556 55.5117 20.1556H43.1072V18.8689V17.9334H48.239C48.9917 17.9334 49.4708 17.3827 49.4708 16.6467V12.6467C49.4708 11.9107 48.9917 11.2667 48.239 11.2667H43.1072V10.4245V9.04449Z" fill="white"/>
</svg>
