<svg width="22" height="17" viewBox="0 0 22 17" fill="none" xmlns="http://www.w3.org/2000/svg">
<path d="M6.66134 11.4519C6.54252 11.5955 6.4856 11.7804 6.50311 11.9659C6.52061 12.1515 6.6111 12.3225 6.75467 12.4413C6.89824 12.5601 7.08313 12.617 7.26867 12.5995C7.4542 12.582 7.62519 12.4915 7.744 12.3479C9.46693 10.2647 12.4051 10.2647 14.128 12.3479C14.2468 12.4915 14.4178 12.582 14.6033 12.5995C14.7889 12.617 14.9738 12.5601 15.1173 12.4413C15.2609 12.3225 15.3514 12.1515 15.3689 11.9659C15.3864 11.7804 15.3295 11.5955 15.2107 11.4519C12.9408 8.71915 8.9312 8.71915 6.66134 11.4519Z" fill="white"/>
<path d="M10.9338 4.6665C8.08901 4.6665 5.41595 5.9097 3.41115 8.16836C3.28788 8.30698 3.22472 8.48889 3.23557 8.67408C3.24643 8.85927 3.3304 9.03256 3.46902 9.15583C3.60764 9.2791 3.78955 9.34226 3.97473 9.33141C4.15992 9.32055 4.33321 9.23658 4.45648 9.09796C6.19248 7.14357 8.49221 6.0665 10.9338 6.0665C13.3754 6.0665 15.6751 7.14357 17.4111 9.09796C17.4719 9.16697 17.5458 9.22324 17.6285 9.26354C17.7111 9.30383 17.801 9.32735 17.8928 9.33273C17.9846 9.33811 18.0766 9.32525 18.1634 9.29488C18.2502 9.26452 18.3301 9.21726 18.3986 9.15583C18.4674 9.09489 18.5235 9.02096 18.5636 8.9383C18.6038 8.85563 18.6272 8.76586 18.6326 8.67411C18.638 8.58237 18.6252 8.49047 18.5949 8.40368C18.5647 8.31689 18.5177 8.23692 18.4565 8.16836C16.4517 5.9097 13.7786 4.6665 10.9338 4.6665Z" fill="white"/>
<path d="M21.7204 4.89439C18.8402 1.73973 15.0135 0 10.9367 0C6.85992 0 3.03326 1.73786 0.153004 4.89439C0.0420712 5.03358 -0.0118394 5.20971 0.00218297 5.38714C0.0162053 5.56457 0.0971133 5.73005 0.228532 5.85008C0.35995 5.97011 0.532062 6.03573 0.710035 6.03366C0.888007 6.03159 1.05855 5.96198 1.18713 5.83892C3.7986 2.97546 7.25939 1.4 10.9367 1.4C14.614 1.4 18.0748 2.97546 20.6863 5.83892C20.7483 5.90682 20.8231 5.96185 20.9064 6.00084C20.9897 6.03984 21.0798 6.06206 21.1717 6.06622C21.2635 6.07038 21.3553 6.0564 21.4418 6.02509C21.5283 5.99378 21.6077 5.94574 21.6756 5.88372C21.7435 5.8217 21.7985 5.74692 21.8375 5.66363C21.8765 5.58035 21.8988 5.4902 21.9029 5.39833C21.9071 5.30647 21.8931 5.21468 21.8618 5.12821C21.8305 5.04175 21.7824 4.96229 21.7204 4.89439Z" fill="white"/>
<path d="M10.9344 16.3331C11.321 16.3331 11.6344 16.0197 11.6344 15.6331C11.6344 15.2465 11.321 14.9331 10.9344 14.9331C10.5478 14.9331 10.2344 15.2465 10.2344 15.6331C10.2344 16.0197 10.5478 16.3331 10.9344 16.3331Z" fill="white"/>
</svg>
