<svg width="48" height="48" viewBox="0 0 48 48" fill="none" xmlns="http://www.w3.org/2000/svg">
<circle cx="24" cy="24" r="24" fill="white"/>
<path d="M24.5 7C33.6126 7 40.9999 14.3874 41 23.5C41 32.6127 33.6127 40 24.5 40C22.1215 40 19.8611 39.4957 17.8184 38.5898L13 41V35.3301C9.91664 32.3322 8 28.1402 8 23.5C8.00015 14.3874 15.3874 7 24.5 7Z" fill="#145062"/>
<path d="M32.3701 20.8193C33.2306 20.8193 33.9759 21.1332 34.6006 21.7578C35.2253 22.3825 35.5399 23.1294 35.54 23.9932C35.54 24.8603 35.227 25.608 34.6055 26.2295L34.6045 26.2285C33.9831 26.8533 33.2372 27.168 32.3701 27.168C31.5167 27.168 30.7765 26.8578 30.1553 26.2402V26.2393C29.531 25.6218 29.2168 24.8853 29.2168 24.0352C29.2169 23.2683 29.4512 22.5943 29.9189 22.0166L30.1338 21.7744C30.7484 21.1385 31.4957 20.8193 32.3701 20.8193ZM32.3809 21.6934C31.7538 21.6934 31.2279 21.9258 30.7969 22.3936H30.7959C30.3743 22.8487 30.1641 23.3913 30.1641 24.0254C30.1642 24.6404 30.3788 25.1696 30.8105 25.6182C31.2453 26.0696 31.7672 26.2939 32.3809 26.2939C33.0154 26.2939 33.5428 26.0646 33.9697 25.6045C34.3842 25.1533 34.5918 24.6075 34.5918 23.9619C34.5917 23.3469 34.3771 22.8177 33.9453 22.3691C33.5105 21.9176 32.9908 21.6934 32.3809 21.6934Z" fill="white" stroke="white" stroke-width="0.2"/>
<path d="M28.2666 18.9004V27.0273H27.3193V18.9004H28.2666Z" fill="white" stroke="white" stroke-width="0.2"/>
<path d="M23.0098 20.8193C23.957 20.8193 24.6945 21.1494 25.2109 21.8115V21.4727H26.1641V27.0273H25.2109V26.1729C24.682 26.836 23.9453 27.168 23.0098 27.168C22.1034 27.1679 21.3339 26.8646 20.708 26.2568C20.0777 25.6482 19.7628 24.8878 19.7627 23.9834C19.7627 23.0852 20.0815 22.3282 20.7188 21.7197C21.348 21.1193 22.1137 20.8194 23.0098 20.8193ZM23.0098 21.6934C22.341 21.6934 21.7941 21.9143 21.3613 22.3535C20.928 22.7935 20.71 23.345 20.71 24.0146C20.71 24.6725 20.9285 25.2145 21.3643 25.6475C21.8007 26.0772 22.3474 26.2939 23.0098 26.2939C23.6416 26.2939 24.1736 26.0691 24.6113 25.6182L24.7637 25.4473C25.0936 25.0382 25.2578 24.5581 25.2578 24.0039C25.2578 23.3705 25.0429 22.8306 24.6113 22.3789C24.1735 21.921 23.6412 21.6934 23.0098 21.6934Z" fill="white" stroke="white" stroke-width="0.2"/>
<path d="M19.8018 18.9004L19.707 19.0527L19.2627 19.7725L15.4688 26.1104H19.7227V27.0273H13.8242L13.9141 26.876L18.1133 19.8213H13.9004V18.9004H19.8018Z" fill="white" stroke="white" stroke-width="0.2"/>
</svg>
